<svg width="214" height="43" viewBox="0 0 214 43" fill="none" xmlns="http://www.w3.org/2000/svg">
<path d="M111.688 21.8262V27.0837C111.688 29.0527 111.734 30.3413 111.827 30.9495C111.92 31.5577 112.167 32.0113 112.574 32.3051C112.981 32.6014 113.742 32.7484 114.863 32.7484H115.693V33.5962H104.234V32.7484H104.899C105.969 32.7484 106.711 32.6143 107.123 32.3437C107.536 32.0731 107.796 31.653 107.907 31.0809C108.018 30.5088 108.072 29.1764 108.072 27.0863V14.8163C108.072 12.8241 108.018 11.5381 107.907 10.9608C107.796 10.3835 107.551 9.98404 107.17 9.7624C106.788 9.54076 105.964 9.42994 104.698 9.42994H104.237V8.58205L107.373 8.47123C109.884 8.38618 111.84 8.34237 113.242 8.34237C115.824 8.34237 117.814 8.54597 119.21 8.95059C120.607 9.35778 121.752 10.0768 122.643 11.1103C123.535 12.1437 123.981 13.4478 123.981 15.0224C123.981 16.3884 123.677 17.5945 123.068 18.6382C122.46 19.6846 121.587 20.4784 120.447 21.0196C119.308 21.5608 117.308 21.8314 114.443 21.8314H111.693L111.688 21.8262ZM111.688 20.9036H113.479C114.917 20.9036 116.082 20.7593 116.966 20.4706C117.852 20.182 118.589 19.5763 119.179 18.6537C119.77 17.7311 120.066 16.5945 120.066 15.2389C120.066 13.172 119.558 11.6566 118.543 10.6902C117.528 9.72374 115.883 9.24181 113.608 9.24181C112.77 9.24181 112.131 9.26758 111.688 9.31655V20.9036Z" fill="#F5F1EB"/>
<path d="M129.318 21.7334C129.736 20.6381 130.416 19.7232 131.357 18.9836C132.297 18.2465 133.217 17.8754 134.114 17.8754C134.926 17.8754 135.565 18.1279 136.034 18.6305C136.501 19.1356 136.735 19.6511 136.735 20.1794C136.735 20.535 136.614 20.8443 136.375 21.102C136.135 21.3597 135.844 21.4886 135.498 21.4886C134.882 21.4886 134.416 21.0324 134.096 20.1227C133.875 19.5067 133.542 19.2 133.099 19.2C132.571 19.2 131.937 19.5609 131.2 20.2799C130.462 20.9989 129.988 21.7463 129.78 22.522C129.571 23.2978 129.465 24.3622 129.465 25.7152V28.4083C129.465 30.0191 129.486 31.0345 129.53 31.452C129.573 31.8695 129.749 32.1891 130.055 32.4107C130.362 32.6324 130.911 32.7432 131.697 32.7432H132.212V33.5911H124.187V32.7432H124.574C125.311 32.7432 125.839 32.6427 126.151 32.4391C126.465 32.2355 126.651 31.9494 126.713 31.5809C126.775 31.2123 126.805 30.1531 126.805 28.4058V24.1431C126.805 22.5195 126.785 21.5015 126.741 21.0891C126.697 20.6768 126.522 20.3572 126.215 20.1304C125.909 19.9036 125.36 19.7902 124.574 19.7902H124.187V18.9604C125.344 18.8264 126.857 18.463 128.725 17.8728C129.081 18.8444 129.28 20.1304 129.316 21.7283L129.318 21.7334Z" fill="#F5F1EB"/>
<path d="M150.307 23.5968H139.771C139.722 24.3235 139.696 24.8647 139.696 25.2204C139.696 27.8775 140.111 29.8722 140.941 31.2072C141.771 32.5422 143.011 33.2097 144.66 33.2097C146.9 33.2097 148.485 32.2071 149.42 30.2021H150.307C149.912 31.4572 149.132 32.4391 147.964 33.1452C146.797 33.8514 145.521 34.207 144.145 34.207C142.866 34.207 141.658 33.8849 140.519 33.238C139.382 32.5911 138.449 31.6788 137.722 30.4985C136.996 29.3181 136.635 27.8852 136.635 26.1997C136.635 23.8132 137.336 21.8288 138.738 20.249C140.14 18.6692 141.892 17.878 143.995 17.878C145.977 17.878 147.508 18.481 148.59 19.6872C149.673 20.8933 150.245 22.1973 150.307 23.5993V23.5968ZM147.078 22.8597C147.114 22.5762 147.132 22.3236 147.132 22.102C147.132 21.0196 146.815 20.1794 146.181 19.5841C145.547 18.9887 144.768 18.6898 143.846 18.6898C141.606 18.6898 140.271 20.0789 139.841 22.8597H147.072H147.078Z" fill="#F5F1EB"/>
<path d="M152.049 34.0782V29.1145H152.768C153.606 31.9803 155.098 33.4133 157.252 33.4133C158.188 33.4133 158.886 33.1298 159.348 32.5654C159.809 31.9984 160.041 31.3773 160.041 30.7021C160.041 29.916 159.796 29.2691 159.304 28.764C158.799 28.2589 157.822 27.6507 156.371 26.9368C154.845 26.1868 153.75 25.4497 153.088 24.723C152.423 24.0091 152.09 23.1303 152.09 22.0839C152.09 21.0376 152.446 20.1382 153.16 19.2336C153.874 18.329 154.876 17.878 156.167 17.878C157.458 17.878 158.572 18.414 159.433 19.4836C159.616 19.298 159.858 18.8496 160.152 18.1357H160.835V22.803H160.152C159.907 21.6845 159.43 20.7206 158.721 19.9139C158.013 19.1073 157.18 18.7052 156.221 18.7052C155.484 18.7052 154.886 18.932 154.433 19.3882C153.977 19.8444 153.75 20.3727 153.75 20.9758C153.75 21.6407 154.002 22.2128 154.505 22.6922C154.997 23.1844 155.938 23.7437 157.33 24.3725C159.42 25.3209 160.701 26.2435 161.167 27.1404C161.634 28.0501 161.868 28.9238 161.868 29.7614C161.868 31.0783 161.435 32.1479 160.567 32.9726C159.701 33.7973 158.608 34.2096 157.291 34.2096C155.899 34.2096 154.665 33.6375 153.582 32.4932C153.25 32.8617 152.979 33.3901 152.771 34.0808H152.052L152.049 34.0782Z" fill="#F5F1EB"/>
<path d="M172.264 19.3341H167.708V28.4676C167.708 29.8696 167.77 30.8154 167.894 31.2999C168.017 31.787 168.278 32.1762 168.677 32.4726C169.076 32.7689 169.504 32.9158 169.96 32.9158C170.847 32.9158 171.615 32.4107 172.267 31.403L172.857 31.7535C172.476 32.5653 171.914 33.1761 171.169 33.5885C170.424 34.0008 169.672 34.207 168.909 34.207C168.022 34.207 167.247 33.9467 166.574 33.4236C165.901 32.9004 165.486 32.2896 165.319 31.5886C165.151 30.8876 165.069 29.6583 165.069 27.8981V19.3366H162.873V18.4887C163.881 18.4655 164.785 18.0403 165.587 17.2156C166.386 16.3909 166.896 15.2363 167.118 13.7467H167.708V18.4887H172.264V19.3366V19.3341Z" fill="#F5F1EB"/>
<path d="M179.751 17.878V28.4135C179.751 30.0243 179.774 31.0397 179.826 31.4572C179.877 31.8747 180.053 32.1942 180.362 32.4159C180.671 32.6375 181.218 32.7483 182.004 32.7483H182.39V33.5962H174.254V32.7483H174.88C175.754 32.7483 176.321 32.6221 176.586 32.3695C176.852 32.1169 177.004 31.8154 177.048 31.4649C177.092 31.1144 177.112 30.0964 177.112 28.4109V23.8338C177.112 22.0633 177.03 20.9809 176.862 20.5866C176.695 20.1923 176.476 19.9474 176.197 19.8495C175.921 19.7516 175.437 19.7026 174.749 19.7026H174.251V18.8547C176.439 18.6331 178.138 18.3084 179.344 17.878H179.749H179.751ZM176.19 10.1644C176.19 9.63611 176.378 9.17995 176.751 8.79852C177.128 8.4171 177.579 8.22639 178.107 8.22639C178.635 8.22639 179.084 8.4171 179.455 8.79852C179.823 9.17995 180.009 9.63611 180.009 10.1644C180.009 10.6928 179.823 11.167 179.455 11.5484C179.086 11.9298 178.638 12.1205 178.107 12.1205C177.576 12.1205 177.125 11.9298 176.751 11.5484C176.375 11.167 176.19 10.7056 176.19 10.1644Z" fill="#F5F1EB"/>
<path d="M194.835 19.8134C195.882 18.6331 196.938 18.0429 198.011 18.0429C198.601 18.0429 199.059 18.2027 199.384 18.5223C199.711 18.8418 199.874 19.1923 199.874 19.5737C199.874 20.3856 199.505 20.7928 198.766 20.7928C198.361 20.7928 198.011 20.5402 197.714 20.0351C197.444 19.5686 197.16 19.3341 196.866 19.3341C196.4 19.3341 195.882 19.6536 195.317 20.2928C195.957 21.3005 196.276 22.3726 196.276 23.504C196.276 24.9807 195.748 26.2847 194.689 27.4161C193.629 28.5604 191.846 29.1764 189.338 29.2614C186.73 29.3464 185.426 29.8773 185.426 30.8489C185.426 31.3051 185.722 31.6247 186.313 31.8077C186.89 32.0035 188.109 32.153 189.967 32.2509C191.995 32.3489 193.56 32.537 194.652 32.8128C195.748 33.0885 196.621 33.6452 197.273 34.4828C197.925 35.3204 198.25 36.3152 198.25 37.4723C198.25 39.096 197.585 40.4052 196.258 41.4025C194.931 42.3999 193.016 42.8973 190.519 42.8973C188.23 42.8973 186.398 42.454 185.019 41.5701C183.64 40.6835 182.952 39.565 182.952 38.212C182.952 37.462 183.148 36.8461 183.542 36.3667C183.937 35.8874 184.496 35.6477 185.22 35.6477C185.416 35.6477 185.594 35.6786 185.756 35.7405C184.993 36.578 184.612 37.462 184.612 38.3975C184.612 39.48 185.119 40.3742 186.135 41.083C187.15 41.7891 188.666 42.1448 190.684 42.1448C192.48 42.1448 193.879 41.784 194.882 41.0649C195.884 40.3459 196.387 39.4258 196.387 38.3073C196.387 37.078 195.938 36.2095 195.039 35.7044C194.142 35.2121 192.542 34.9158 190.24 34.8178C187.596 34.707 185.88 34.3823 185.091 33.8411C184.305 33.3127 183.911 32.6298 183.911 31.7922C183.911 30.1815 185.037 29.166 187.287 28.7485C186.119 28.0604 185.238 27.2718 184.648 26.3878C184.058 25.5039 183.761 24.5116 183.761 23.4163C183.761 21.8778 184.367 20.5711 185.578 19.4964C186.789 18.4192 188.225 17.8831 189.887 17.8831C191.941 17.8831 193.591 18.53 194.833 19.8212L194.835 19.8134ZM186.532 23.8364C186.532 25.424 186.856 26.5863 187.508 27.3234C188.161 28.0604 188.99 28.4315 189.998 28.4315C190.934 28.4315 191.735 28.0656 192.405 27.3337C193.075 26.6017 193.41 25.3312 193.41 23.5246C193.41 21.718 193.052 20.45 192.341 19.7593C191.627 19.0712 190.823 18.7258 189.923 18.7258C188.792 18.7258 187.941 19.1511 187.377 19.999C186.81 20.8469 186.529 22.1277 186.529 23.8364H186.532Z" fill="#F5F1EB"/>
<path d="M213.18 23.5968H202.644C202.595 24.3235 202.57 24.8647 202.57 25.2204C202.57 27.8775 202.985 29.8722 203.814 31.2072C204.644 32.5422 205.884 33.2097 207.533 33.2097C209.773 33.2097 211.358 32.2071 212.293 30.2021H213.18C212.786 31.4572 212.005 32.4391 210.837 33.1452C209.67 33.8514 208.394 34.207 207.018 34.207C205.74 34.207 204.531 33.8849 203.392 33.238C202.255 32.5911 201.322 31.6788 200.596 30.4985C199.869 29.3181 199.508 27.8852 199.508 26.1997C199.508 23.8132 200.209 21.8288 201.611 20.249C203.013 18.6692 204.765 17.878 206.868 17.878C208.85 17.878 210.381 18.481 211.464 19.6872C212.546 20.8933 213.118 22.1973 213.18 23.5993V23.5968ZM209.951 22.8597C209.987 22.5762 210.005 22.3236 210.005 22.102C210.005 21.0196 209.688 20.1794 209.054 19.5841C208.42 18.9887 207.642 18.6898 206.719 18.6898C204.479 18.6898 203.144 20.0789 202.714 22.8597H209.946H209.951Z" fill="#F5F1EB"/>
<path d="M36.6605 2.29628C38.279 1.3221 40.1165 0.829855 42.1293 0.829855H42.2685V0.11855H42.1293C39.7532 0.11855 37.5625 0.64172 35.4261 1.71898C32.7484 0.57729 29.4238 0 25.5425 0C20.1459 0 15.0972 1.56178 11.3216 4.40184C7.37077 7.37334 5.19562 11.5252 5.19562 16.0945C5.19562 18.4166 5.91208 20.3727 7.27026 21.7515C8.52019 23.0195 10.2521 23.7179 12.1515 23.7179C16.2698 23.7179 19.1923 19.7877 19.5377 16.1461L19.548 16.0353L18.9166 15.8265L18.9037 16.0069C18.6047 20.5402 14.8369 23.0478 12.3447 23.0478C7.90425 23.0478 7.5589 17.7568 7.5589 16.1358C7.5589 8.5305 13.7905 0.832432 25.6997 0.832432C29.0784 0.832432 31.9597 1.34787 34.2689 2.36586C31.5371 4.07196 29.0707 6.70327 26.5296 10.6232L20.5015 19.8804C14.7621 28.6944 10.618 35.0627 5.84507 35.0627C3.49725 35.0627 1.85301 33.921 1.18036 31.836C1.39684 31.9211 1.67002 31.9906 1.98444 31.9906C3.1751 31.9906 3.97403 31.1737 3.97403 29.9598C3.97403 28.8104 3.15449 28.0089 1.98444 28.0089C0.814398 28.0089 -0.00257111 28.8078 6.08009e-06 30.0681L0.0360867 30.2382C0.0360867 33.7303 2.20866 35.8126 5.84765 35.8126C11.8757 35.8126 16.4038 32.0783 22.5504 22.0375L29.6815 10.3758C31.2355 7.80888 33.1014 4.91728 35.5987 3.02562C39.3717 5.27293 40.7557 9.11294 39.3949 13.5741C37.7455 19.0867 32.0139 23.9936 28.6558 23.9936C27.6842 23.9936 26.8414 23.5864 26.3415 22.8751C25.7358 22.0169 25.6662 20.8005 26.1482 19.45C26.4935 18.4759 28.4857 13.6462 33.7225 14.3008L33.8359 14.3137L34.0421 13.7003L33.8849 13.672C33.4442 13.5921 32.9983 13.5509 32.5602 13.5509C29.9237 13.5509 26.4832 15.5868 25.2977 19.3598C24.7436 21.0711 24.8673 22.6586 25.6353 23.7153C26.2925 24.6173 27.393 25.0967 28.8181 25.0967C33.6169 25.0967 39.5856 22.4525 41.9515 15.0327C43.637 9.67992 41.6603 4.93532 36.6631 2.29628H36.6605Z" fill="#F5F1EB"/>
<path d="M91.9566 23.9189C90.449 27.2435 87.4878 32.1891 85.5034 32.1891C85.091 32.1891 84.7173 31.9597 84.4802 31.5628C84.0395 30.8232 84.1581 29.6763 84.7998 28.4934L97.91 3.98177H96.6935C95.5828 3.98177 94.5132 4.62865 93.972 5.63117L84.3978 23.839H84.3926L84.3565 23.9215C84.3565 23.9215 84.3565 23.9241 84.3539 23.9266L83.1375 26.2384C82.8695 26.7487 82.6427 27.2461 82.4571 27.728C80.818 30.6634 79.4006 32.1917 78.2975 32.1917C77.8491 32.1917 77.4651 31.9804 77.2435 31.6092C76.8801 31.001 76.9909 30.0526 77.5527 29.0089L83.9261 17.1821H82.7097C81.903 17.1821 81.0603 17.5455 80.465 18.1408C79.9959 17.2414 78.9547 16.7492 77.5115 16.7492C74.7745 16.7492 71.0608 19.9165 68.9088 23.8416H68.8728L68.8367 23.9241C68.7594 24.0916 68.6821 24.2617 68.6022 24.4318C68.5145 24.6044 68.4321 24.7797 68.3522 24.9549C66.6332 28.496 64.2519 32.1943 62.5406 32.1943C62.0922 32.1943 61.7082 31.9829 61.4865 31.6118C61.1232 31.0036 61.234 30.0552 61.7958 29.0114L75.1817 3.9895H73.9653C72.8545 3.9895 71.785 4.63638 71.2438 5.6389L64.3395 18.7207C64.1256 17.7852 63.5612 16.7543 61.7546 16.7543C59.0949 16.7543 55.09 19.816 52.9277 23.8467H52.92L52.8839 23.9266C52.8839 23.9266 52.8762 23.9421 52.8736 23.9473C52.7344 24.2101 52.603 24.4756 52.4818 24.7436C51.9046 25.8595 50.8324 27.7151 49.3351 29.3877C47.4357 31.5139 45.5415 32.5911 43.7117 32.5911C42.4823 32.5911 41.9592 31.8541 41.9592 30.1299C41.9592 28.8001 42.32 27.3182 43.0622 25.5992C49.5103 23.8957 52.5153 20.3443 52.5153 18.4707C52.5153 17.4218 51.6829 16.7956 50.2887 16.7956C45.6574 16.7956 39.5134 23.7694 39.5134 29.0295C39.5134 31.9958 40.7994 33.6993 43.039 33.6993C43.0545 33.6993 43.0699 33.6993 43.088 33.6993C46.7785 33.6993 49.7423 30.3825 51.5721 27.6172C51.4664 28.2022 51.4097 28.7924 51.4097 29.3851C51.4097 32.2767 52.5076 33.9364 54.425 33.9364C55.9817 33.9364 57.4326 32.8927 58.9661 30.6634C58.9222 31.6788 59.1619 32.5138 59.6722 33.0963C60.1309 33.6194 60.7675 33.8952 61.5149 33.8952C63.6385 33.8952 65.7312 31.1969 67.262 28.5836C67.2027 29.0243 67.1667 29.4624 67.1667 29.8954C67.1667 33.5396 69.2748 33.9339 70.182 33.9339C72.1716 33.9339 73.6045 32.1943 74.7462 30.3541C74.7436 31.5242 75.0632 32.5293 75.6508 33.1684C76.0863 33.6426 76.6481 33.8952 77.2744 33.8952C78.88 33.8952 80.4443 32.3798 81.8412 30.2846C81.7716 31.2278 81.9236 32.0448 82.3077 32.6813C82.7741 33.4545 83.5679 33.8978 84.4854 33.8978C87.6811 33.8978 91.1216 27.7022 92.6499 24.0426L92.7298 23.8493H91.9979L91.9618 23.9318L91.9566 23.9189ZM79.0991 20.401L75.924 26.241L75.5709 26.9858C73.1638 31.7999 72.0118 32.4649 71.1252 32.4649C70.1459 32.4649 69.6485 31.5036 69.6485 29.6093C69.6485 24.1431 74.973 17.7337 77.7048 17.7337C78.6532 17.7337 78.9857 19.3856 79.0991 20.4036V20.401ZM63.4581 20.4423L60.4093 26.2281C60.2907 26.4265 60.167 26.6327 60.0897 26.826C58.6877 29.4959 56.7084 32.1891 55.4456 32.1891C54.6956 32.1891 53.8916 31.2227 53.8916 29.0991C53.8916 23.754 59.1465 17.7337 61.9479 17.7337C62.7107 17.7337 63.2725 18.7465 63.4607 20.4423H63.4581ZM43.4333 24.7565C45.4538 20.834 49.0593 17.4553 50.2474 17.4553C50.366 17.4553 50.4613 17.5971 50.5 17.8367C50.7165 19.1614 49.2217 22.6973 43.4333 24.7539V24.7565Z" fill="#F5F1EB"/>
</svg>
