<?xml version="1.0" encoding="UTF-8"?>
<svg id="Capa_2" data-name="Capa 2" xmlns="http://www.w3.org/2000/svg" viewBox="0 0 165.06 138.96">
  <defs>
    <style>
      .cls-1 {
        fill: #0e1a24;
      }
    </style>
  </defs>
  <g id="Capa_1-2" data-name="Capa 1">
    <path class="cls-1" d="M142.25,8.91c6.28-3.78,13.41-5.69,21.22-5.69h.54V.46h-.54c-9.22,0-17.72,2.03-26.01,6.21C127.08,2.24,114.18,0,99.12,0c-20.94,0-40.53,6.06-55.18,17.08-15.33,11.53-23.77,27.64-23.77,45.37,0,9.01,2.78,16.6,8.05,21.95,4.85,4.92,11.57,7.63,18.94,7.63,15.98,0,27.32-15.25,28.66-29.38l.04-.43-2.45-.81-.05.7c-1.16,17.59-15.78,27.32-25.45,27.32-17.23,0-18.57-20.53-18.57-26.82C29.35,33.09,53.52,3.22,99.74,3.22c13.11,0,24.29,2,33.25,5.95-10.6,6.62-20.17,16.83-30.03,32.04l-23.39,35.92c-22.27,34.2-38.35,58.91-56.87,58.91-9.11,0-15.49-4.43-18.1-12.52.84.33,1.9.6,3.12.6,4.62,0,7.72-3.17,7.72-7.88,0-4.46-3.18-7.57-7.72-7.57S-.01,111.78,0,116.67l.14.66c0,13.55,8.43,21.63,22.55,21.63,23.39,0,40.96-14.49,64.81-53.45l27.67-45.25c6.03-9.96,13.27-21.18,22.96-28.52,14.64,8.72,20.01,23.62,14.73,40.93-6.4,21.39-28.64,40.43-41.67,40.43-3.77,0-7.04-1.58-8.98-4.34-2.35-3.33-2.62-8.05-.75-13.29,1.34-3.78,9.07-22.52,29.39-19.98l.44.05.8-2.38-.61-.11c-1.71-.31-3.44-.47-5.14-.47-10.23,0-23.58,7.9-28.18,22.54-2.15,6.64-1.67,12.8,1.31,16.9,2.55,3.5,6.82,5.36,12.35,5.36,18.62,0,41.78-10.26,50.96-39.05,6.54-20.77-1.13-39.18-20.52-49.42Z"/>
  </g>
</svg>