<svg width="157" height="18" viewBox="0 0 157 18" fill="none" xmlns="http://www.w3.org/2000/svg">
<path d="M156.578 11.5228C156.413 11.7063 155.854 11.836 155.795 11.9434C155.671 12.1582 155.717 13.4423 155.501 13.9568C155.002 15.1514 153.215 14.704 152.189 14.8069C148.776 15.138 148.112 18.7711 143.434 17.402C140.47 16.534 139.586 14.8696 135.838 15.1693C131.994 15.4781 129.781 18.7309 125.805 17.2722C122.644 16.1134 122.107 14.5519 117.957 15.3975C114.287 16.1447 113.733 18.8069 109.215 17.4825C105.669 16.4445 104.368 14.9904 100.153 15.7018C98.1101 16.0463 96.8227 16.9725 95.0635 17.5362C90.56 18.9769 88.787 15.4333 84.6041 15.4736C81.0123 15.5094 78.8728 18.0866 75.7712 17.9926C72.4863 17.8897 70.9745 14.968 66.6863 15.3394C62.3385 15.7197 61.7888 18.9635 56.653 17.1022C53.6843 16.0239 52.4473 15.1022 48.9425 15.5318C45.6852 15.93 43.6602 18.6101 39.9859 17.2186C37.4157 16.2476 36.8476 14.8651 33.4162 15.1693C29.5907 15.5094 28.7935 18.7398 24.2854 17.411C21.4999 16.5877 20.6845 15.2499 17.1888 15.4825C13.4733 15.7286 11.4758 18.9009 7.49002 17.147C6.49127 16.7085 5.70785 15.7286 4.61748 15.3573C3.74702 15.062 1.83657 15.0843 1.33262 14.4848C0.828663 13.8852 1.06231 12.9859 0.91571 12.3774C0.879058 12.2297 0.237662 12.1224 0.0818948 11.2812C-0.0372216 10.6414 -0.0601286 8.28344 0.246825 7.78232C0.416337 7.50491 0.801175 7.45122 0.88364 7.21408C1.08522 6.65033 0.659151 5.41543 1.16769 4.94115C1.46548 4.66375 1.96027 4.83377 2.31304 4.69954C4.28304 3.95234 4.40216 3.50491 5.7216 2.24317C6.91276 1.1067 8.59414 0.704017 10.2297 0.865091C12.0027 1.03959 13.2443 2.39977 15.2784 2.56979C19.0947 2.88746 21.2388 0.274487 24.9497 1.80021C27.4924 2.84272 28.1292 3.69731 31.3041 3.41543C34.841 3.10223 36.5911 0.176053 40.4486 1.63467C43.4586 2.77113 44.5077 4.16263 48.2966 3.34384C50.2391 2.92326 51.3982 1.25435 53.5972 1.19619C55.5672 1.1425 56.6713 2.28791 58.3848 2.82482C60.3502 3.4378 62.2607 3.54518 64.2811 3.13802C67.1582 2.55189 68.6838 0.551891 71.8953 1.53623C74.1906 2.24317 75.1848 3.60782 78.1535 3.60335C81.1223 3.59887 81.9607 2.25659 84.1643 1.46464C87.3851 0.310281 89.1168 2.41766 91.9939 2.99932C93.7532 3.35279 95.6087 3.37516 97.3633 2.95905C100.763 2.14921 101.537 -0.0476611 105.527 1.68388C107.763 2.6548 108.45 3.54965 111.25 3.42437C113.838 3.30804 114.58 2.185 116.61 1.34384C120.023 -0.0700326 120.948 1.75547 123.78 2.56979C127.188 3.54518 128.929 2.968 131.875 1.45569C135.38 -0.342963 138.179 2.44451 142.069 2.05525C145.408 1.71968 146.398 -1.4839 150.636 0.838245C151.827 1.49149 152.102 2.3595 152.867 2.91431C153.348 3.2633 155.442 3.91207 155.662 4.27001C155.937 4.70849 155.602 5.80021 155.781 6.36845C155.904 6.76218 156.486 6.82482 156.697 7.17382C157.119 7.8718 157.123 10.9188 156.569 11.5407L156.578 11.5228ZM150.879 1.53176C149.752 0.408715 147.75 0.13131 146.229 0.645851C144.24 1.32147 143.452 2.42214 140.868 2.39529C138.051 2.36845 135.261 0.189475 132.59 1.44227C130.899 2.23422 129.923 3.06196 127.807 3.23646C123.986 3.55413 123.303 2.27001 120.321 1.34831C118.901 0.909833 117.054 0.999319 116.042 2.20737C117.512 1.65704 118.47 1.29015 120.041 1.78679C122.818 2.66375 123.908 3.88075 127.28 3.74652C130.427 3.62124 133.13 1.16487 135.765 1.57203C138.078 1.92997 139.045 2.93668 141.908 2.73086C145.189 2.49373 146.306 0.144733 149.921 1.52728C150.228 1.64361 150.384 1.92102 150.695 1.8718L150.558 1.5586L150.87 1.53176H150.879ZM41.1541 2.55189C38.2541 -0.146095 35.1159 2.99037 32.138 3.52728C28.6469 4.15816 27.8314 3.28567 24.9543 2.13131C21.28 0.6548 19.1405 3.10223 15.6312 2.90088C13.0564 2.75323 11.4209 0.967999 8.83695 1.18724C7.53125 1.2991 6.66537 1.69731 6.14309 2.89194C6.82572 2.68165 7.38006 2.185 8.09018 1.98813C8.47502 1.88075 9.29967 1.751 9.68451 1.76442C11.1964 1.82258 12.7632 2.8293 14.1789 3.12012C18.1738 3.94786 20.9364 1.19619 24.1984 2.35055C27.0755 3.37068 27.7169 4.39082 31.3133 4.08657C34.1629 3.84496 36.8064 1.46912 39.4544 1.91207C40.0729 2.01498 40.5494 2.46241 41.1496 2.55189H41.1541ZM104.9 1.70625C102.082 0.448983 100.35 2.45346 97.8948 3.11118C95.5995 3.72415 93.35 3.67493 91.0639 3.05301C88.8694 2.45793 86.6978 0.520572 84.3476 1.78679C85.2089 1.83153 85.919 1.62572 86.8307 1.74652C88.3655 1.94786 89.9461 3.07986 91.49 3.49149C95.5766 4.58321 98.4171 3.31252 102.073 1.74652L104.9 1.70625ZM72.8529 2.55189C70.1269 0.149207 67.4514 2.66375 64.6384 3.29015C62.8104 3.69731 60.9595 3.72415 59.1316 3.2812C56.7263 2.69954 54.5089 0.619006 51.9525 1.95681C52.7405 1.94786 53.4506 1.80916 54.2615 1.91654C56.3094 2.18948 58.1695 3.7331 60.5701 3.92102C64.3956 4.2208 65.376 3.06643 68.583 2.20737C70.2964 1.74652 71.2219 1.84943 72.8574 2.55189H72.8529ZM104.377 8.1671C105.326 8.09104 107.323 7.97471 107.502 6.88299C108.047 3.50044 104.593 1.25883 101.45 2.16263C97.9085 3.18276 97.3084 4.53399 92.8461 4.04182C89.6391 3.68836 86.8582 0.811399 83.6695 2.65927C81.6308 3.84048 80.5496 6.39977 82.1119 8.40424C82.8724 9.37963 85.5158 9.09328 86.652 8.80692C87.9715 8.47583 89.0115 7.55413 90.2713 7.15592L89.4009 6.82035C90.6287 6.9859 91.7557 6.40424 92.9698 6.40424C94.8527 6.40424 96.4745 7.51833 98.2476 7.95681C99.5212 8.27001 100.973 8.40424 102.288 8.5161C102.311 8.20737 101.862 8.39977 101.597 8.26106C100.964 7.92549 100.456 6.84719 100.534 6.14921L100.03 5.97024C100.722 6.12684 100.557 5.50491 100.864 4.99932C101.702 3.60335 104.107 3.41543 104.946 4.82035C105.738 6.15368 105.381 7.16934 104.382 8.18053L104.377 8.1671ZM122.144 3.23198C119.867 1.45122 116.706 1.36173 114.828 3.82706C114.03 4.87404 113.604 6.67717 114.878 7.51833C116.706 8.72191 119.551 9.14697 121.686 8.6548C124.384 8.03288 125.411 6.03735 128.65 6.31476C129.429 6.38187 130.143 6.77113 130.821 6.88299C131.197 6.94563 131.765 6.69954 132.237 6.97247L131.367 6.54742L132.237 6.29238H130.67L132.063 6.11789L131.367 5.69283L132.063 5.4378L130.496 5.26778L132.214 5.24093C132.782 3.34384 134.803 3.64809 136.42 3.73757L135.723 4.07314C137.052 4.62795 137.144 5.93892 136.594 7.13802H137.29C137.4 7.80021 136.905 7.24093 136.539 7.33489L135.197 8.15816C136.195 8.13131 137.419 8.45793 138.39 8.13131C138.871 7.97024 139.063 6.19842 139.027 5.69731C138.907 3.92102 137.437 2.55637 135.755 2.08657C133.181 1.36173 131.88 3.15144 129.658 3.68836C128.132 4.05525 126.222 4.12236 124.678 3.89417C123.441 3.71073 122.414 3.1067 121.09 3.39753L122.135 3.22751L122.144 3.23198ZM24.1709 4.76666C24.8673 4.90536 25.9485 4.66375 26.6952 4.76666V4.93668H24.432V5.27672H27.3916V5.44675H24.6061L25.6507 5.8718L24.7802 5.95681L25.1284 6.46241L24.6061 6.80245C25.4354 6.84272 26.0722 6.42661 26.9243 6.53847C28.6652 6.76666 29.467 7.68836 31.0522 8.25212C32.9351 8.92326 35.2945 9.16934 37.1454 8.25212L35.2304 8.1671L36.6231 7.99708C36.362 7.42885 35.5511 7.7152 35.0563 7.65704L36.275 7.48702L35.5786 7.14697L35.9268 6.8114H34.3599L35.9268 6.6369L35.5786 6.21185L35.9268 5.78679L35.2304 5.70178L35.9268 5.44675H33.1413V5.27672H36.1009C36.1421 5.27672 36.2658 4.72191 36.449 4.59663H32.619V4.42661H36.8843C37.04 4.42661 37.6723 3.97471 38.0159 4.08657L37.6677 3.751C38.0846 3.79574 38.9184 3.98366 39.2712 4.14026C39.9951 4.46241 40.1737 5.23646 40.9755 5.11565L40.4532 5.62124H41.6718L40.6273 5.79127L41.1496 6.21632L40.6273 6.64138L42.8905 6.47135C42.9501 3.72863 40.4028 2.00156 37.7547 2.2208C36.646 2.31475 35.8947 2.92773 34.8822 3.24093L35.5786 3.5765C34.1583 3.36621 32.9901 4.34608 31.5744 4.26106L31.831 4.60558C30.3191 4.38634 28.9951 4.45346 27.4924 4.07762C26.4708 3.82259 25.6186 3.23646 24.6061 3.23646L24.7802 2.90088C22.0085 1.62572 18.4121 2.87851 17.9768 6.02393L18.3388 6.21185C17.3996 6.63243 18.4716 8.09552 18.7099 8.82035L21.2938 8.50715C20.1209 7.38858 19.3146 5.97918 20.7807 4.69059C21.9856 3.63467 23.8777 4.30133 25.385 4.08209L25.0414 4.25212H23.557C23.557 4.39529 24.1251 4.75323 24.1663 4.76218L24.1709 4.76666ZM53.1712 3.91654H50.5598V3.74652H53.4323C54.4036 3.74652 55.4206 4.68612 56.4789 4.42661L55.4344 4.59663L56.3048 4.76666L55.7826 5.27672H58.9162V5.44675H55.9566L57.1753 5.78679L56.1307 6.12236L57.5235 6.20737C56.6164 6.3595 55.9796 6.19395 55.9566 7.31252L56.9966 6.97247H56.3827L56.3003 6.6369C57.2761 6.94115 57.9679 6.53399 58.8246 6.46688C62.4989 6.185 65.1332 9.75547 69.0778 8.99484L70.7546 8.50715L66.9245 8.33265C67.2773 7.16039 67.6484 8.47583 68.4914 8.16263C68.2211 7.65256 67.4331 7.65704 66.9245 7.65256C66.7871 6.91878 67.653 7.73757 67.9737 7.39753L66.9291 7.1425L67.5155 6.97695C67.8179 6.93668 67.6117 6.41319 67.2681 6.37739L67.6209 5.61229L66.9245 5.44227L67.6209 5.35726L67.0986 5.10223C68.0836 5.31699 67.8729 4.86509 68.3035 4.4982C69.7604 3.24988 72.2618 4.17158 72.3993 6.09552C72.4818 7.24093 72.1152 7.63914 71.2768 8.33265L74.7587 6.79798C74.7175 5.15144 73.9295 3.52281 72.3764 2.74876C69.1969 1.16934 67.204 3.41095 64.3131 3.99708C62.3385 4.39977 60.3594 4.35502 58.426 3.78679C56.0162 3.07986 54.2249 1.25883 51.5035 2.71297C49.9321 3.54965 48.3469 5.86733 49.6526 7.39305L49.5793 8.00156C50.5231 8.43556 51.4852 8.21185 52.4656 8.16263C51.2653 7.24988 50.8438 5.74205 52.0258 4.58769L53.162 3.91207L53.1712 3.91654ZM112.477 3.5765C111.602 3.69283 110.283 3.5765 109.344 3.5765C109.229 3.5765 108.464 3.10223 108.386 3.5765C110.178 3.95234 111.666 3.94786 113.435 3.49149C113.527 3.46912 114.466 3.29462 114.218 3.06643C113.659 3.06643 112.968 3.51386 112.477 3.58097V3.5765ZM148.79 3.5765C147.044 2.9501 145.546 2.88299 143.796 3.54518C143.635 3.60782 142.005 4.30581 142.348 4.59663C144.483 4.0284 146.38 3.64361 148.615 4.08657L148.093 3.751L148.79 3.58097V3.5765ZM13.8078 4.59663C12.5479 4.08657 11.4758 3.63019 10.0648 3.74652C9.57456 3.78679 6.57374 4.4982 7.19223 5.27672C9.27218 4.23869 11.485 4.42661 13.6383 5.1067L13.4871 4.78455L13.8078 4.59663ZM79.4684 4.93668L79.3859 4.42214L75.6383 4.09104C75.6292 4.34608 76.2477 4.38187 76.4401 4.40871C77.338 4.53847 78.378 4.58321 79.2943 4.60111C79.3355 4.89641 78.9003 4.76218 78.6896 4.77113C78.2543 4.78903 77.8145 4.75771 77.3793 4.77113L77.558 5.1067L77.0311 5.27672L80.1648 5.44675C80.4626 5.21856 80.3389 5.19619 79.9723 5.17829C79.2302 5.14697 78.4742 5.15144 77.7275 5.10223L79.4684 4.9322V4.93668ZM112.739 4.42661C112.294 4.25659 111.63 4.48478 111.272 4.42661C111.011 4.38187 110.704 4.0463 110.654 4.08657C110.64 4.09552 110.704 4.38187 110.539 4.42661C110.287 4.49373 109.761 4.25659 109.779 4.59216C110.709 4.33265 112.088 5.22751 112.739 4.42661ZM148.441 4.42661C146.558 4.10446 144.167 3.84943 142.696 5.27225L143.393 5.10223V5.78232C145.138 5.32594 146.623 4.90536 148.446 5.4378L147.75 5.09775C147.809 4.48478 148.254 4.74876 148.446 4.42214L148.441 4.42661ZM46.7251 4.59663L46.6427 4.26106L44.8101 4.77113L45.3324 5.1067L44.636 5.44675L46.8992 5.27672V4.77113H45.8547L46.7251 4.60111V4.59663ZM104.194 4.61453C104.116 4.50715 103.145 4.24317 102.902 4.24764C101.839 4.27001 101.17 4.91431 100.896 5.87628L101.239 6.0463L101.583 5.61677L101.413 6.38187L101.065 6.29686V6.97695L101.587 6.6369V7.31699L101.936 7.1425C101.441 8.26106 103.516 8.14026 104.029 7.57203C104.629 6.90089 104.199 5.83153 104.084 5.16487C104.052 4.99484 104.254 4.69059 104.199 4.61453H104.194ZM133.634 7.48702C137.006 8.39529 137.171 3.53176 133.758 4.29238C132.53 4.56531 132.164 6.57426 133.199 7.31699C133.364 6.96352 133.355 6.91878 133.808 6.97695L133.634 7.48254V7.48702ZM21.5137 5.49149C22.0864 4.96352 23.415 5.27672 23.3279 6.23869C23.1447 8.20737 21.3533 6.76218 20.9502 7.06196C20.6249 7.30357 21.2525 7.7331 21.4083 7.80916C22.4116 8.31028 24.1022 7.40648 24.1022 6.21632C24.0976 3.61229 19.5803 4.21185 20.6066 6.98142L21.3029 6.80692C21.1197 6.42661 21.2113 5.78232 21.5183 5.49596L21.5137 5.49149ZM55.6085 6.80692C56.0345 4.09552 52.1174 3.39305 51.8196 6.2208C52.6031 6.93668 52.3832 6.21185 52.6076 5.84048C52.8734 5.402 53.1757 5.19619 53.611 4.93668C53.9592 5.85391 53.9775 4.82035 54.3028 4.93668L54.5685 5.27225L54.2203 5.44227C54.9946 5.80916 54.4677 5.22751 55.0908 5.27672L54.7426 5.95681L55.4344 5.78679L55.2649 6.72639L55.6085 6.80692ZM71.4555 5.27225C70.2598 3.71073 68.1294 4.37739 67.9737 6.29238H68.4959C68.2531 6.09104 68.5601 5.37068 68.6975 5.29015C68.8075 5.22751 69.0686 5.4199 69.2565 5.39305C69.4535 5.36173 69.6275 5.18724 69.7971 5.18276C71.2952 5.12012 71.428 7.04406 70.1086 7.29015C69.3618 7.42885 68.5097 6.45793 68.6792 7.81811C70.0215 8.30581 71.2998 7.95681 71.8083 6.55189L71.286 6.80692C71.5334 6.1671 71.2768 5.94339 71.1028 5.36621L71.4601 5.27672L71.4555 5.27225ZM142.174 8.1671C143.585 7.56308 144.68 7.16934 146.274 7.31252C147.644 7.43332 148.863 8.44898 150.32 8.6369C152.313 8.89194 154.993 8.0105 155.373 5.83601C155.423 5.54071 155.579 4.38187 155.062 4.50267C153.921 5.04854 154.7 6.08657 153.682 7.07091C151.08 9.5765 147.786 6.53847 145.056 6.62795C144.103 6.65927 142.435 7.1067 142.183 8.1671H142.174ZM39.3582 4.82035C38.5977 4.29686 36.4124 4.60558 36.4399 5.70178C36.4399 5.81364 36.9851 5.70178 36.7972 6.12684L36.275 6.04182L36.8843 6.46241C37.205 6.44451 36.8568 5.33042 38.1854 5.17829C39.514 5.02616 39.5323 7.09328 38.2404 7.29015C37.3699 7.4199 36.9209 5.77784 36.8843 6.9859L37.3333 7.2454L37.15 7.82706L37.5715 7.64809L37.8968 7.97919C38.7123 7.63019 40.2379 7.05748 40.0409 5.94339C39.9996 5.72415 39.5232 4.92773 39.3628 4.81587L39.3582 4.82035ZM13.9819 5.95681C12.9007 4.99037 11.201 4.66822 9.76239 4.81587C9.48751 4.84272 8.19097 5.09328 8.05811 5.19619C7.87486 5.33489 7.939 5.63914 7.84279 5.74652C7.51751 6.12236 7.61372 5.55413 7.151 6.52057C7.05479 6.71744 6.35383 6.9859 6.66537 7.32147C6.86695 7.54071 7.32967 6.60558 7.70993 6.8114L7.36174 6.47583C8.07186 6.62795 8.6033 6.10894 9.23095 6.00603C10.5825 5.77784 12.4104 6.52057 13.1939 5.62572L13.9819 5.96576V5.95681ZM44.636 6.6369H47.7697C47.8109 6.36845 47.4123 6.44003 47.2062 6.40872C46.8076 6.35502 46.4182 6.44003 46.0288 6.29238C46.1708 5.80469 47.5223 6.3595 47.5956 6.29238C47.591 5.58097 46.8259 5.72863 46.3769 5.95234C46.2166 5.25883 47.5589 5.77784 47.7697 5.61229C47.898 5.09775 47.4811 5.4378 47.4994 5.1067C47.5223 4.71744 47.5269 4.94563 47.1604 4.9322L47.2474 5.44227C46.5923 5.41095 46.2074 5.31699 45.928 5.96129L45.5065 5.95234L45.8547 5.70178L45.424 5.44675L45.1583 6.12684L45.8547 6.29686C45.5477 6.3237 45.227 6.34608 44.9246 6.39529C44.7368 6.42661 44.5123 6.11789 44.636 6.6369ZM111.515 4.93668L109.252 5.18724C109.454 5.47807 109.724 5.42437 110.026 5.45122C110.53 5.49596 111.721 5.69731 111.863 5.27225H110.471L111.515 4.9322V4.93668ZM2.13894 5.1067C0.297221 5.59887 1.11271 7.89865 2.61083 8.47135C5.7216 9.66599 6.78448 7.54518 9.35923 7.47807C12.3097 7.39753 14.2522 9.751 17.5416 9.87628C21.9672 10.0418 24.0793 6.55189 28.4728 7.87628C29.3799 8.14921 30.1863 8.77113 31.0476 9.10223C33.3933 10.0016 36.055 9.98813 38.1854 8.59663C37.3424 8.56979 36.4903 9.08433 35.6427 9.17382C31.5699 9.61677 31.0522 8.13579 27.8772 7.26778C24.4641 6.33713 23.8731 8.23869 21.083 8.90089C19.3146 9.32147 17.3171 9.31699 15.5441 8.93668C13.1755 8.42214 11.5629 6.68612 9.08893 7.05748C7.97107 7.22751 6.84862 7.97471 5.83613 8.13131C3.45381 8.50268 1.69913 7.71968 2.13436 5.11118L2.13894 5.1067ZM79.6425 5.61677L76.6783 5.44675L76.8249 5.76442L76.5042 5.95234L77.2739 5.77784L77.4709 6.13131L79.2897 5.95681C79.1248 6.64138 76.6692 6.07762 76.6737 6.38187C76.9761 6.57426 77.4709 6.26554 77.3747 6.80692L77.6358 6.46688C77.9428 6.80245 79.3401 6.86062 79.4592 6.55189L79.111 6.30133H80.3297C80.4442 5.61229 79.9403 6.25212 79.6333 6.0463V5.62124L79.6425 5.61677ZM147.397 5.61677C147.026 5.66599 146.659 5.50939 146.293 5.50939C146.1 5.50939 145.189 5.5586 145.134 5.78232L145.66 5.91207L145.748 6.30581L147.044 6.29238C146.934 5.80469 145.66 6.52952 145.825 5.78232C146.082 5.82259 146.279 5.92997 146.558 5.9076C146.723 5.89417 147.415 5.84943 147.392 5.61229L147.397 5.61677ZM38.5382 6.80692C38.7581 6.27449 38.8039 5.76889 38.1075 5.61677L37.8647 6.52505L38.5336 6.80245L38.5382 6.80692ZM53.3819 5.82706C53.0154 6.185 53.4277 6.95458 53.95 6.80245C54.5868 6.61901 54.0141 5.20066 53.3819 5.82706ZM70.3697 6.76218C70.7271 6.38634 70.6034 5.67046 70.0124 5.65256C69.0228 5.62124 69.7054 7.46912 70.3697 6.76218ZM112.386 5.95681V5.61677L111.689 5.79127L111.863 6.12684H111.337L111.515 5.79127H110.645L111.167 6.0463L110.645 6.47135C111.016 6.12684 112.322 6.53399 112.386 6.47135C112.72 6.13578 112.024 6.14473 112.038 6.0463L112.386 5.96129V5.95681ZM21.9947 6.80692C23.447 7.02616 22.966 5.1246 21.8206 6.0463L22.1642 6.12684L21.9901 6.80692H21.9947ZM55.0862 6.12684L54.3761 7.04854C53.1666 7.89417 53.02 6.52952 51.9525 6.6369L52.1266 7.31699L52.5618 6.97695C52.91 7.1246 52.6626 7.55413 52.7313 7.65704C52.9283 7.94339 53.3086 7.402 53.446 8.00156C54.2249 7.84943 54.8983 7.68388 55.4344 7.06196L54.9121 6.97695L55.0862 6.12684ZM45.5065 8.50715C44.4573 6.35502 41.6535 6.80693 39.7614 7.49149L40.5402 7.83153L40.2837 7.49149C41.3008 7.48702 42.4736 7.47807 43.4632 7.70178C44.1916 7.86285 44.8101 8.28791 45.5111 8.50715H45.5065ZM47.5956 6.80692C46.8717 7.19171 45.873 6.39082 45.3324 7.1425H46.551L46.3724 7.48254H47.9392L47.0687 7.31252L47.591 6.80692H47.5956ZM62.7463 7.83153C60.8038 6.66375 57.9496 6.41766 56.3048 8.1671C57.8992 7.90312 59.2186 7.2812 60.9046 7.50491C61.3673 7.56755 61.775 7.81811 62.2148 7.92549C62.3889 7.96576 62.7829 8.14921 62.7463 7.83153ZM96.0164 8.33713L96.1126 7.82259C94.1976 6.43556 91.5816 6.74876 89.575 7.82706C89.5383 8.15816 89.914 7.92997 90.0972 7.91207C92.278 7.68388 93.9044 7.27225 96.0164 8.33713ZM114.479 7.66151C112.358 6.67717 109.6 6.36397 107.864 8.1671C109.417 8.05972 110.778 7.42438 112.395 7.65704L112.216 7.32147C112.399 7.19619 113.632 7.68388 113.953 7.75547C114.131 7.79574 114.521 7.98366 114.479 7.66151ZM115.524 8.3416C117.412 9.98813 120.756 10.0731 123.01 9.10223C123.61 8.84272 124.119 8.32818 124.719 8.0463C126.464 7.23198 128.576 6.98142 130.322 7.92549L130.675 7.5765C129.195 6.46241 127.156 6.64138 125.507 7.29015C124.522 7.67493 123.651 8.39977 122.662 8.76666C120.357 9.6123 117.76 9.20514 115.524 8.34608V8.3416ZM79.1202 8.33713C79.2027 7.98813 78.937 7.94787 78.7262 7.78679C77.3747 6.74876 74.4838 6.75771 73.201 7.91207C73.9478 7.98813 74.6533 7.57203 75.4001 7.50939C76.715 7.39753 77.9565 7.77337 79.1202 8.33713ZM155.231 13.6123L155.318 6.97695L154.535 7.91654L154.883 8.00156L154.535 8.50715L154.883 8.59216L154.535 9.01722L154.883 9.18724L154.361 9.44675L154.709 9.61677C154.209 9.69283 154.274 10.3819 154.709 10.4669C154.315 10.3863 154.342 11.4199 154.393 11.6615C154.411 11.7376 154.622 11.7331 154.645 11.7823C154.695 11.8897 154.379 12.1358 154.878 12.0866L154.361 12.4266L154.883 12.5966L154.535 12.7667L154.883 12.9367L154.535 13.4423L155.231 13.6168V13.6123ZM156.454 7.14697H155.758V9.35726L156.276 8.67717L156.45 9.35726V7.14697H156.454ZM127.656 7.71968C123.45 7.86733 120.939 13.5452 124.701 16.3013C128.517 19.0978 132.026 15.0888 135.994 14.8025C140.296 14.4937 142.609 17.6391 146.251 17.1649C151.291 16.5116 152.23 9.21408 147.053 7.90312C143.287 6.9501 140.671 10.2745 136.502 10.2163C133.089 10.1671 130.446 7.61677 127.651 7.71968H127.656ZM0.741616 10.0374C0.631663 9.2812 1.19976 8.50268 0.65457 7.82706C0.251407 8.25659 0.333872 9.35726 0.443825 9.87628C0.507965 10.1761 0.682058 10.1089 0.737035 10.0374H0.741616ZM24.3175 16.9412C30.0122 18.9456 33.6681 12.1537 29.1234 8.94563C25.6369 6.48478 22.8377 9.52728 19.2688 10.0105C15.8327 10.4758 14.8111 9.41543 11.9386 8.3774C6.14767 6.27896 2.40008 12.4848 6.38132 15.93C10.0877 19.1335 13.0564 15.4781 16.6849 15.1425C20.0201 14.8338 21.6557 16.0016 24.3175 16.9412ZM76.1011 7.89417C68.4822 7.89417 68.867 18.3908 76.9349 17.4825C83.271 16.7667 82.3318 7.89865 76.1011 7.89417ZM62.6913 16.2745C66.8146 12.7711 63.5618 6.79798 58.0137 8.21632C54.6464 9.07986 54.1058 10.6772 49.7672 10.3863C45.9509 10.1268 43.3395 6.64585 39.5827 8.58769C34.7356 11.0978 37.434 18.0776 43.2524 17.1067C44.6818 16.8651 46.1662 15.7823 47.6277 15.4288C49.7809 14.9054 52.6351 15.0306 54.7334 15.742C55.7093 16.0731 56.708 16.8203 57.6976 17.0978C59.2873 17.5452 61.4039 17.3707 62.6913 16.2745ZM55.4344 8.00156C53.7438 8.43109 52.0625 8.77561 50.2986 8.67717C48.9792 8.60558 47.6643 8.11341 46.3769 8.08209C48.7226 9.12012 52.3786 9.51386 54.7838 8.46688C55.0266 8.3595 55.3611 8.29686 55.4344 7.99708V8.00156ZM92.4933 8.0463C85.2455 8.73981 86.3817 18.6503 94.4954 17.3125C95.2971 17.1828 96.1264 16.5295 96.8915 16.2521C99.8144 15.1917 102.192 14.7711 105.285 15.5318C107.507 16.0821 109.229 17.496 111.634 17.4557C116.262 17.3841 118.708 11.2051 114.223 8.84272C110.081 6.65928 108.473 9.50939 104.904 10.2969C102.65 10.798 100.355 10.6369 98.1926 9.86733C96.2684 9.18276 94.6741 7.83153 92.4979 8.04183L92.4933 8.0463ZM141.125 8.00156C139.324 8.39082 137.528 8.80692 135.664 8.65927C134.573 8.57426 133.506 8.11789 132.416 8.08657C134.464 9.19619 137.281 9.2812 139.521 8.73086L141.125 8.00603V8.00156ZM1.26848 8.1671V13.3573C1.26848 13.3841 1.43799 13.8539 1.61666 13.7823L1.64873 10.4579L1.96485 10.2969L1.44257 9.36174L1.96943 9.27672C1.3372 9.15144 1.72204 8.39529 1.27306 8.17158L1.26848 8.1671ZM106.815 8.17158C104.982 8.53847 103.04 8.95905 101.157 8.84719C100.089 8.78455 99.0081 8.33265 97.9314 8.42214C100.52 9.46017 103.489 9.51833 106.114 8.58769C106.311 8.5161 106.815 8.40872 106.815 8.17158ZM108.382 8.3416C106.091 9.42885 103.759 10.0508 101.175 9.84943C99.7686 9.74205 98.7057 9.27225 97.4092 8.93221C97.2305 8.88746 96.8548 8.69059 96.8869 9.01722C100.479 10.704 105.152 10.8203 108.382 8.3416ZM88.6999 8.84719L88.6175 8.51162C86.9819 9.25883 85.218 9.67941 83.3947 9.52728C82.5425 9.4557 81.7316 9.03511 80.8657 9.10223C82.6525 10.194 85.1173 10.2074 87.0964 9.5765C87.3209 9.50491 88.6358 8.91878 88.6999 8.84719ZM54.9121 9.19171C52.0304 9.92997 48.9838 9.99708 46.2029 8.85167C48.0858 10.3103 51.4027 10.3148 53.6522 9.74652C53.9821 9.66151 54.7334 9.48701 54.9075 9.19171H54.9121ZM71.6342 8.85167C69.1144 9.65704 66.8421 9.66151 64.3177 8.85167C66.1686 10.2879 69.7787 10.2879 71.6342 8.85167ZM140.951 8.85167C139.045 9.29462 137.29 9.70178 135.293 9.52728C134.615 9.46912 133.96 9.21408 133.295 9.09328C133.117 9.06196 132.723 8.86957 132.764 9.18724C134.88 9.89417 137.157 10.1626 139.343 9.5765L140.946 8.85167H140.951ZM152.789 8.85614L151.057 9.02169C150.984 9.32594 151.351 9.13355 151.406 9.19171C151.451 9.24093 150.892 9.73757 151.057 10.0418L151.754 9.8718L151.057 10.2118L151.58 10.4669L151.057 10.7219H151.754L151.406 11.3215L151.928 11.4065L151.616 11.5989C151.896 12.1 151.438 11.7465 151.406 12.0821L152.276 12.1671L151.231 12.4221L151.754 12.5922L151.58 13.1917L152.102 13.3573L151.231 13.6123L151.754 13.7868C151.735 14.3416 151.502 14.279 151.231 14.628L153.321 14.4579C152.707 13.9165 153.362 13.1425 152.798 12.6727L153.137 12.5161L152.807 11.6391L153.146 11.4915L152.798 10.798C153.683 10.5071 152.881 10.3908 152.835 10.3013C152.72 10.0597 152.812 9.64361 153.146 9.61677L152.789 8.85614ZM4.05397 9.19171L2.83532 9.02169C3.07355 9.80469 2.85364 10.6235 2.93611 11.4244C2.9636 11.6794 3.20183 11.9658 3.19725 12.1582C3.19725 12.2566 2.89487 12.2297 2.86739 12.3327C2.80325 12.5698 3.16518 13.9121 3.18808 14.2879L2.6658 14.3729L4.75492 14.968L4.32885 14.6324L4.38841 14.3013L3.88446 14.2879V13.6123L4.40674 13.7823V13.4467L3.71495 13.2723L4.23722 13.0172L3.71495 12.6772L4.23722 12.5071L3.71036 12.3371L4.23722 12.2521V11.9121L3.71495 11.742L4.23722 11.657L3.71495 11.402L4.41132 11.317L3.71495 11.147C3.93943 10.7622 4.06771 10.5027 4.58541 10.5474L4.01274 10.3863L3.71495 9.95234L4.41132 9.6123L3.71495 9.52728L4.06313 9.19171H4.05397ZM34.534 10.2118C33.6177 9.80469 33.297 10.6056 32.4449 10.5519L32.532 10.8875L33.1413 10.9769L32.619 11.3975L34.0117 11.232L33.6636 11.657C33.5444 12.0105 33.9797 11.8808 34.0026 11.9165C34.0346 11.9613 33.5124 12.5295 33.8331 12.9277H33.3108L33.4849 12.0776L32.9626 12.3327L33.3108 12.5832H32.6144L32.9626 12.7532L32.7885 13.2633L33.8331 13.0978C33.9384 13.742 32.9305 13.4378 32.6144 13.4378L33.659 13.7778C33.604 14.2074 32.4861 13.9031 32.4403 13.9479C32.3899 14.3506 32.6465 14.4669 32.958 14.2879V14.968C33.6819 14.4535 35.1113 15.0351 35.6565 14.968C35.7802 14.9501 36.0138 14.704 35.7481 14.5385C35.6015 14.449 34.7356 14.6995 34.7035 14.2879C35.432 14.4266 35.6977 13.6257 36.2704 13.9434C36.1329 13.5049 35.5969 13.6078 35.2258 13.6033L35.574 13.0978H34.7035L34.3554 13.4333C34.4332 12.704 35.0426 13.0306 35.2029 12.8964C35.2808 12.8293 35.1204 12.3103 35.574 12.4132C35.5007 11.9568 34.5111 12.5564 34.3554 12.4132C34.3004 11.9434 34.8547 11.7868 35.2258 11.7331L35.0517 11.2275H36.0963C36.1467 10.9993 35.8122 10.9725 35.6656 10.9725C35.1021 10.968 34.4378 11.1514 33.8331 11.053C33.9659 10.8875 33.9659 10.4714 34.0438 10.4042C34.1904 10.2834 34.5844 10.525 34.5294 10.2074L34.534 10.2118ZM69.3664 13.7823C69.1648 13.6481 66.8879 13.8808 66.4068 13.7823C66.3564 13.5541 66.6863 13.5273 66.8421 13.5273C67.6346 13.5183 68.5418 13.7107 69.371 13.6123C69.5542 13.0485 68.8487 13.3975 68.8487 13.1872C68.8487 12.6906 69.1419 13.0709 69.371 13.1067V12.0866L69.0274 12.1671L69.1969 12.5922H68.1523L68.8487 12.1671L68.1523 11.9121L69.1969 11.742C68.7937 11.6794 68.441 11.4691 68.6746 11.062L67.8041 10.8919L69.5451 10.6369C69.5451 10.4535 68.6884 10.6056 68.4455 10.5474C68.3127 10.5161 68.3402 10.2432 68.2073 10.2163C67.882 10.1403 67.456 10.2521 67.1078 10.2163L67.6301 10.7219H66.7596L66.503 10.0418L66.0678 10.5564L66.5901 10.7264L66.0678 11.3215L66.3931 11.4333L66.2648 11.8405L66.5901 11.921L66.2419 12.2566L67.4514 12.27V12.7711L66.9383 12.9412L67.9828 13.1112L66.0678 13.2857L66.416 13.5362L65.8937 14.1313C65.9578 14.194 67.4285 13.7107 67.6301 14.2163C67.3139 14.6995 67.2452 14.1537 66.9337 14.2074C66.7917 14.2342 65.8983 14.4579 66.0678 14.8114L66.9337 14.4714V14.9814L67.456 14.6414C67.3598 15.1917 68.3218 14.7711 68.7571 15.1649L68.8533 14.8114L69.032 15.0217L69.5451 15.1514L69.371 14.4714L69.8933 14.3013C69.458 14.3774 69.4076 13.8092 69.371 13.7868L69.3664 13.7823ZM117.613 14.1224H120.225C120.261 14.4221 119.831 14.2834 119.615 14.2924C119.12 14.3103 118.626 14.279 118.135 14.2924L117.787 14.8025C117.751 15.1157 118.172 14.9501 118.378 14.9456C118.91 14.9322 119.56 14.7085 119.963 14.7174C120.312 14.7264 121.255 15.1783 121.787 14.9725L121.09 14.8025L121.613 14.2969H120.394L121.09 14.1224V13.4423L120.394 13.2723C121.265 13.4333 120.55 12.4937 121.613 12.7577L120.916 12.5877V11.9926L121.439 11.8226L120.742 11.7376C120.715 11.2946 121.494 10.3103 120.568 10.5474L121.352 10.3819V10.0418C120.779 10.279 119.968 10.0329 119.455 10.0463C119.349 10.0463 119.368 10.3192 119.111 10.4087C118.754 10.5385 118.332 10.5519 117.952 10.5519C117.439 10.9322 118.749 10.8427 118.873 10.8248C119.157 10.7801 120.06 10.1626 120.389 10.7174C119.221 10.4937 119.098 11.7286 117.952 11.402L118.227 12.0955L119.519 11.9121L118.823 12.3327C119.01 13.0306 119.437 12.5385 119.693 12.9277C118.965 12.9948 119.015 13.6526 118.14 13.4602L118.103 13.921L117.604 14.1224H117.613ZM86.0015 11.572H83.4771V11.402H86.4367C85.9648 11.0709 86.9223 11.0262 86.6108 10.7219C86.565 10.6772 85.974 10.9904 86.0885 11.232C85.7907 11.0978 85.9373 10.7577 85.3967 10.8919L86.2672 10.3819C85.2959 10.8561 84.7966 9.76889 83.8299 10.7219L83.8161 10.2253C83.1106 9.95681 83.0281 10.5698 82.4371 10.5519L83.3076 10.7219L82.4371 11.147L83.3076 11.232L82.6112 11.572C82.5517 12.1447 83.3855 11.9121 83.3076 12.3327C83.2664 12.5385 82.9457 12.525 82.7853 12.4221C82.9503 12.9412 82.3959 13.7555 82.9548 13.9523L83.1289 13.4423C83.2755 13.6033 82.7991 14.5474 82.7487 14.5922C82.5929 14.7264 82.2035 14.4758 82.263 14.798C82.6433 14.8069 83.0327 14.9412 82.9594 14.4624L83.4771 15.138C83.6146 14.7532 82.8861 13.6615 83.6512 13.7778V15.308L84.0864 14.4579L84.4346 15.308L84.8836 15.0262C84.9844 14.619 84.4026 13.9389 85.2181 13.9523C84.8241 15.581 85.5708 15.8092 85.6075 13.9926L86.1893 13.7868L86.3405 14.1089L86.9636 13.7823L86.0931 13.6078L86.6154 13.4378L85.919 13.0978L86.2672 12.4221L85.6579 13.1022L85.5708 12.4221C85.3372 12.2476 83.8665 12.789 84.004 12.0821H86.2672C86.3268 11.8986 86.1527 11.6123 86.0061 11.572H86.0015Z" fill="#0E1A24"/>
<path d="M114.209 11.8494C114.246 11.9166 114.452 11.9076 114.452 11.9881C114.136 12.892 114.516 13.6526 113.957 14.5161C113.838 14.6996 113.463 14.5295 113.609 14.9725L113.957 15.1425L113.435 15.4826L112.913 15.3125L112.817 15.836L111.346 15.8271L112.042 16.1626H110.65L110.828 15.8271L109.261 15.9926L109.958 15.6571L108.739 15.4826L109.435 15.232L108.565 14.9725L108.913 14.5519L108.391 14.2924L108.739 14.0418L108.217 13.7823C108.661 13.3483 108.34 12.977 108.432 12.3864C108.881 9.37965 112.775 9.04408 114.218 11.8494H114.209ZM109.66 14.4043C111.644 16.3998 115.057 13.6615 113.087 11.4826C110.956 9.12909 107.64 12.3729 109.66 14.4043Z" fill="#0E1A24"/>
<path d="M95.7875 14.0866C95.7783 14.1179 95.5034 14.0955 95.4942 14.2208L95.6546 14.6145L95.1506 14.8875L95.4988 15.138L94.6284 15.3125L95.4988 15.6481H93.7579L94.2802 15.8226C94.2848 15.9568 94.1519 16.0776 94.0236 16.0955C93.2677 16.2029 92.2689 15.9344 91.4947 15.9926L91.6688 15.487H90.9724L91.1465 15.147L90.1019 14.9725L90.6242 14.8024L90.0561 13.9523C88.7596 9.37962 95.8699 8.22526 95.9386 13.0262C95.9386 13.0798 95.8104 14.0194 95.792 14.091L95.7875 14.0866ZM92.9103 14.8427C93.034 14.789 93.6938 15.1604 94.4359 14.534C96.6854 12.6369 93.4051 8.95009 91.2198 11.393C89.9004 12.8696 90.7846 14.7577 92.6354 15.147C92.8966 15.2499 92.8737 14.8561 92.9058 14.8427H92.9103Z" fill="#0E1A24"/>
<path d="M99.1546 12.7622L99.5027 12.0821C99.97 12.2387 99.9151 12.8651 99.7639 13.2767L99.6722 12.9367H98.9759L98.8018 13.4423L98.6277 11.9121L99.15 12.7622H99.1546Z" fill="#0E1A24"/>
<path d="M125.8 15.8226L127.019 15.5676L125.8 15.308C126.052 14.8919 125.525 14.6324 125.397 14.2924C125.296 14.0239 125.347 13.6928 125.269 13.3975C125.232 13.2588 124.966 13.2812 124.957 13.1917C124.902 12.3819 125.214 11.3752 125.722 10.7309C127.074 9.02617 129.923 9.4736 130.684 11.4736C130.771 11.7018 131.055 13.1872 130.995 13.3528C130.963 13.4423 129.91 14.0955 130.849 14.1224V14.2879L130.354 14.3237L130.304 14.7711L129.809 14.8069L130.157 15.1425C129.722 15.223 129.113 15.3215 128.719 15.4915C128.531 15.572 128.609 15.8271 128.59 15.8271H125.805L125.8 15.8226ZM127.321 10.5877C125.324 10.9904 125.04 14.4982 127.646 14.789C131.092 15.1693 130.968 9.85391 127.321 10.5877Z" fill="#0E1A24"/>
<path d="M147.686 14.5743C147.64 14.628 146.92 15.2051 146.87 15.2275C146.604 15.3438 146.311 15.2544 146.132 15.3259C145.977 15.3841 146.004 15.6212 145.88 15.6481C145.202 15.8136 144.424 15.4289 143.736 15.4825L143.915 15.147L143.297 14.9814L143.393 14.6324H142.696L143.04 14.2074C140.992 11.6928 144.465 8.35503 147.136 10.2074C148.487 11.147 148.725 13.3707 147.686 14.5743ZM143.626 14.0642C145.606 16.0508 148.964 13.572 147.053 11.3125C145.019 8.90984 141.666 12.1 143.626 14.0642Z" fill="#0E1A24"/>
<path d="M134.509 11.742L133.639 11.9121L134.509 12.6772L134.161 13.1022C134.322 12.4087 133.754 12.6056 133.46 12.3416C132.759 11.7062 133.932 11.4244 134.505 11.7465L134.509 11.742Z" fill="#0E1A24"/>
<path d="M11.8104 14.9054C11.7371 15.0128 11.4118 14.9009 11.7187 15.3081L10.5001 15.4826L11.0224 15.8181H9.28143L9.4601 15.4826L8.09026 15.2902C8.23229 14.7756 7.55882 14.4624 7.30226 13.9345C6.06529 11.3528 8.57131 8.89195 11.2102 10.2879C13.1665 11.3215 12.8641 13.3394 11.8149 14.9098L11.8104 14.9054ZM9.41429 10.5832C6.74333 10.9456 7.12359 14.7622 9.53799 14.8069C12.887 14.8696 12.154 10.2163 9.41429 10.5832Z" fill="#0E1A24"/>
<path d="M28.1887 14.9098C28.1612 14.9591 28.0238 14.9591 27.9596 15.0038L28.0925 15.3081C27.529 15.2051 27.0159 15.76 26.5944 15.8181C26.489 15.8315 25.394 15.8002 25.3345 15.7734C25.1925 15.7063 24.8259 15.0217 24.0792 15.3081C24.5419 14.6369 23.5661 14.3192 23.424 14.0866C23.392 14.0329 23.2362 12.9277 23.2316 12.8427C23.1766 10.2969 26.576 8.76667 28.2574 10.798C29.4303 12.2163 29.05 13.5004 28.1795 14.9054L28.1887 14.9098ZM25.6048 10.5877C23.2454 11.0351 23.2087 14.6638 25.7972 14.8785C29.3249 15.1693 28.5598 10.0284 25.6048 10.5877Z" fill="#0E1A24"/>
<path d="M62.247 13.4289L62.5769 13.6078C62.1096 13.5004 62.0225 14.4356 61.8347 14.5877C61.514 14.8517 61.404 15.0262 61.372 15.053C61.1795 15.1917 60.8222 15.138 60.6618 15.3975L61.1841 15.6481C60.4832 15.3438 60.1121 15.9747 59.8922 16.0016C59.3378 16.0731 58.6323 15.9255 58.0504 15.9881L59.4432 15.6526C58.646 15.9613 58.3895 15.3215 58.3207 15.3259C57.858 15.3483 57.7343 15.8315 57.716 15.0575L56.8272 14.798L57.1754 14.5474C56.1171 13.8987 56.3874 11.9702 57.0288 11.0038C58.7468 8.42214 63.1404 10.4937 62.2424 13.4289H62.247ZM59.0446 10.5877C56.479 10.8069 56.4332 14.883 59.1729 14.9412C62.5952 15.0172 61.9446 10.3416 59.0446 10.5877Z" fill="#0E1A24"/>
<path d="M44.4391 14.7801C44.32 14.8695 43.8023 14.8874 43.5961 14.9725L43.9397 15.308L42.3729 15.4825L43.7656 15.8181C42.6798 15.8897 41.2963 15.8002 40.3388 15.2499C39.679 14.8695 39.0101 13.2364 39.0605 12.5027C39.3858 8.00601 47.1101 9.67044 44.407 14.4669C44.3521 14.5608 44.4529 14.7622 44.4345 14.7801H44.4391ZM41.2779 10.5877C39.6286 10.9188 39.1476 13.4065 40.467 14.364C41.2779 14.9546 42.208 15.053 43.1197 14.5921C45.2454 13.5138 43.7656 10.091 41.2825 10.5877H41.2779Z" fill="#0E1A24"/>
<path d="M48.292 12.2477L47.5314 12.0911C47.0229 12.3774 47.2016 12.9859 47.6781 13.2365L48.2874 12.7622L48.2782 13.2588C47.6277 13.5899 46.7938 13.3796 46.9313 12.5474C47.0367 11.8942 47.8613 11.572 48.292 12.2521V12.2477Z" fill="#0E1A24"/>
<path d="M88.8741 5.27671L88.3518 5.44673C88.7779 7.98364 86.8675 8.88297 84.5218 8.50713C84.7921 8.01049 84.0957 7.82257 83.8666 7.36619C82.7717 5.19617 85.154 3.07089 87.3393 4.31474C88.0082 4.69505 88.0266 5.43331 88.8787 5.27671H88.8741ZM87.2523 4.82033C86.0336 3.76888 83.7384 4.75769 84.1736 6.46686C84.8333 6.59662 84.2836 6.11339 84.421 5.94785C85.1998 5.80914 85.2182 4.97246 86.1344 5.13353C87.3531 5.34829 86.8079 6.71295 87.6555 7.14695C87.8937 6.37738 87.9304 5.40199 87.2569 4.82033H87.2523ZM85.942 5.93442L85.7404 5.62123C85.7404 6.0955 85.9191 6.41765 85.3923 6.55635C85.8825 7.25433 86.5559 7.03062 86.6246 6.22078L86.3498 5.85836L85.9466 5.9389L85.942 5.93442ZM85.0074 6.66373C84.9708 6.64136 84.027 6.55635 84.1782 6.88744C84.8333 8.05523 85.9099 8.48476 87.1378 7.82257C87.0049 6.704 86.084 7.45568 85.5205 7.29013C85.1357 7.17827 85.1403 6.74874 85.012 6.65926L85.0074 6.66373Z" fill="#0E1A24"/>
<path d="M122.14 3.91655C122.181 4.21186 121.746 4.07763 121.535 4.08658C121.1 4.10447 120.66 4.07315 120.224 4.08658C120.275 4.2745 120.513 4.50716 120.696 4.56085C121.086 4.67271 121.8 4.40872 121.965 4.76219H120.747C120.976 5.14698 121.077 5.55414 121.617 5.44676L121.095 5.70179L121.791 5.7868L121.095 5.95682L121.791 6.29239L121.122 6.31924L120.921 6.97248L121.791 7.1425C120.958 7.0038 120.458 7.30805 120.05 7.99262C120.6 8.01051 121.155 7.97024 121.709 7.99262C121.92 8.00156 122.355 7.86286 122.314 8.16264C120.376 8.01499 118.616 8.63244 116.738 7.99262C117.224 6.92774 115.4 6.93221 114.649 6.97248C114.672 6.74429 115.643 6.69955 115.79 6.7085C116.037 6.72192 116.175 6.91432 116.39 6.97248L116.289 6.45794L114.649 6.29239H116.216C116.486 5.90313 115.666 5.9434 115.868 5.78233C116.078 5.6123 116.546 5.76443 116.39 5.09776L115.693 4.92774L116.582 4.8472C116.573 4.18054 116.766 4.54743 117.022 4.35951C117.948 3.68837 118.2 3.67942 119.436 3.74653C119.633 3.75548 119.821 3.98367 119.963 3.98814C120.605 4.01499 121.448 3.79127 122.14 3.90313V3.91655ZM120.399 5.44676C119.478 3.25436 116.078 4.21186 116.917 6.63691L117.434 6.29687L117.127 7.06197C117.517 7.69732 118.277 7.87181 119.001 7.82707L118.827 7.32148C119.794 7.71521 119.528 7.25884 120.22 6.97696L119.872 6.55638L120.215 6.30134L120.389 6.64139L120.564 5.62125L120.046 6.13132V5.36622L120.389 5.45123L120.399 5.44676Z" fill="#0E1A24"/>
<path d="M136.947 3.06644H131.898V3.23646H136.947V3.06644Z" fill="#0E1A24"/>
<path d="M40.2792 2.89641L38.6253 3.03063L37.1455 2.72638C38.3092 2.65032 39.1476 2.4803 40.2792 2.89641Z" fill="#0E1A24"/>
<path d="M78.1901 10.9501C78.9965 11.8539 79.1202 13.1559 78.6299 14.2387C78.4009 14.7443 77.6862 15.1604 77.9015 15.6526L75.8124 15.8271L77.3792 15.9971L75.8994 16.2387L74.7678 16.1626L74.7816 15.7331L73.8974 15.6526L74.4196 15.402C72.9261 14.364 72.5413 12.3192 73.8057 10.8875C74.8961 9.65256 77.1272 9.75995 78.1901 10.9501ZM77.4938 11.4602C75.116 8.90088 71.8082 13.0441 74.5342 14.6056C76.9486 15.9881 79.3126 13.411 77.4938 11.4602Z" fill="#0E1A24"/>
<path d="M133.502 6.60109C132.86 5.50042 134.587 4.2342 135.362 5.38409C136.223 6.66373 134.047 7.53621 133.502 6.60109Z" fill="#0E1A24"/>
<path d="M102.224 5.12909C103.855 4.57876 104.744 6.82037 103.163 7.2141C101.583 7.60784 101.473 5.37965 102.224 5.12909ZM102.893 5.65258C102.165 5.71522 102.247 7.30806 103.223 6.61902C103.828 6.19397 103.273 5.62126 102.893 5.65258Z" fill="#0E1A24"/>
<path d="M110.947 11.7734C112.697 11.402 113.407 13.5765 111.877 14.0418C109.816 14.6727 109.385 12.1 110.947 11.7734ZM110.998 12.5922C110.347 14.6324 112.816 13.7823 112.129 12.5922C111.896 12.2879 111.813 12.6861 111.469 12.7219C111.341 12.7353 111.057 12.5295 110.998 12.5922Z" fill="#0E1A24"/>
<path d="M93.002 11.6168C94.2023 11.6168 94.8483 13.6794 93.4555 14.0821C91.1556 14.7488 90.8395 11.6123 93.002 11.6168ZM93.0615 13.7689L93.3135 13.7778C94.2847 12.7085 93.2356 12.0821 92.1865 12.7622C91.8841 13.1067 93.2173 13.5228 93.0661 13.7689H93.0615Z" fill="#0E1A24"/>
<path d="M128.893 11.7868C130.185 12.9814 127.985 14.9098 126.845 13.5362C125.672 12.1223 127.949 10.9143 128.893 11.7868ZM127.55 13.4244C129.158 14.0552 129.199 11.7152 127.623 12.5877L127.55 13.4244Z" fill="#0E1A24"/>
<path d="M144.914 11.4288C146.929 11.0306 147.296 13.5899 145.491 13.8807C143.874 14.1402 143.558 11.6973 144.914 11.4288ZM146.16 12.4356C146.105 12.3595 145.28 12.176 145.147 12.2655L144.959 13.4423C145.592 13.6973 146.54 12.9859 146.16 12.4356Z" fill="#0E1A24"/>
<path d="M8.63526 11.9613C9.54238 10.8696 11.7873 12.1358 10.7564 13.4423C9.68898 14.798 7.6411 13.1604 8.63526 11.9613ZM9.28582 13.4289C10.2571 13.9389 10.9214 13.0306 10.2342 12.2477L10.0738 12.5743L9.45075 12.4132L9.28124 13.4244L9.28582 13.4289Z" fill="#0E1A24"/>
<path d="M25.779 11.5989C27.6436 11.2275 27.9918 13.9165 26.0218 14.0329C24.487 14.1224 24.3679 11.8807 25.779 11.5989ZM26.8693 12.4221C26.4891 12.6414 26.2233 12.5206 25.8293 12.4221L25.8523 13.4154L26.6907 13.6078L26.8693 12.4221Z" fill="#0E1A24"/>
<path d="M60.254 11.9658C61.4452 13.2454 59.3744 14.8383 58.3115 13.6078C57.2211 12.3416 59.2415 10.883 60.254 11.9658ZM60.1349 12.4222L59.2644 12.3282L58.8154 12.7622L59.269 13.7779C60.2082 13.7644 60.0341 13.0888 60.1303 12.4222H60.1349Z" fill="#0E1A24"/>
<path d="M41.4519 11.6033C43.4815 11.1648 43.8251 13.7599 42.0292 14.0508C40.4944 14.2968 40.0592 11.9031 41.4519 11.6033ZM41.8505 13.6123C42.7072 13.5989 42.9546 12.8338 42.4598 12.2566L41.5344 12.8427L41.8505 13.6123Z" fill="#0E1A24"/>
<path d="M117.599 5.96577L117.095 5.87181C117.572 4.5519 119.941 4.62796 119.707 6.2029C119.528 7.39753 117.402 7.39753 117.599 5.96577ZM118.415 5.6302C117.828 5.80917 118.296 6.6906 118.722 6.62348C119.317 6.52952 119.391 5.33042 118.415 5.6302Z" fill="#0E1A24"/>
<path d="M74.9925 13.8986C73.8471 12.9993 75.162 10.9769 76.6097 11.8986C78.0666 12.8203 76.3394 14.9591 74.9925 13.8986ZM75.6384 13.7778C76.3898 13.9165 77.0174 13.308 76.5089 12.6637L75.6339 12.7577L75.982 13.5228L75.6339 13.7734L75.6384 13.7778Z" fill="#0E1A24"/>
</svg>
