<svg width="158" height="165" viewBox="0 0 158 165" fill="none" xmlns="http://www.w3.org/2000/svg">
<path d="M56.6125 7.04944C55.7839 7.04944 55.1185 6.8331 54.6124 6.40041C54.1062 5.96773 53.8531 5.35952 53.8531 4.57578C53.8531 4.04921 53.9633 3.59204 54.1878 3.20425C54.4123 2.81647 54.7103 2.5144 55.0859 2.29806C55.4614 2.08172 55.8778 1.97559 56.3349 1.97559C56.7921 1.97559 57.1758 2.06539 57.4861 2.24908C57.7963 2.42868 58.033 2.65319 58.1922 2.9226C58.3514 3.19201 58.4331 3.45325 58.4331 3.71041C58.4331 4.02064 58.3351 4.29005 58.1432 4.51456C57.9473 4.73906 57.584 4.84928 57.0493 4.84928H54.5103C54.5797 5.36768 54.8042 5.75547 55.1879 6.01263C55.5716 6.26979 56.0451 6.40041 56.6044 6.40041C56.8207 6.40041 57.0166 6.38409 57.1922 6.34735C57.3677 6.31469 57.5065 6.27796 57.6003 6.2453C57.6942 6.21264 57.7595 6.18815 57.7881 6.17999C57.8167 6.17183 57.8412 6.16774 57.8575 6.16774C57.9432 6.16774 58.0208 6.2004 58.082 6.26571C58.1432 6.33102 58.18 6.4045 58.18 6.49022C58.18 6.63717 58.1106 6.73513 57.9718 6.7882C57.7922 6.85759 57.5799 6.91882 57.3391 6.9678C57.0983 7.02087 56.8534 7.04536 56.6003 7.04536L56.6125 7.04944ZM56.3431 2.62462C55.8859 2.62462 55.49 2.76748 55.1512 3.0573C54.8165 3.34712 54.6083 3.72674 54.5307 4.20433H57.0697C57.5595 4.20433 57.8085 4.04105 57.8085 3.71041C57.8085 3.44509 57.6738 3.19609 57.4085 2.9675C57.1391 2.73891 56.788 2.62462 56.3472 2.62462H56.3431Z" fill="#0E1A24"/>
<path d="M63.1232 2.72678C63.0375 2.70229 62.8865 2.66963 62.6783 2.63698C62.466 2.60432 62.2374 2.58391 61.9843 2.58391C61.5598 2.58391 61.2333 2.65739 61.0006 2.80434C60.7679 2.95129 60.6495 3.13089 60.6495 3.34724C60.6495 3.53909 60.7475 3.69012 60.9394 3.8085C61.1353 3.92687 61.4537 4.00443 61.9027 4.04933L62.4211 4.1024C62.862 4.1473 63.2048 4.24526 63.4579 4.40038C63.711 4.55549 63.8865 4.73918 63.9886 4.95144C64.0906 5.1637 64.1437 5.38413 64.1437 5.6168C64.1437 5.84947 64.0825 6.08214 63.9641 6.31073C63.8416 6.53932 63.6334 6.73117 63.3355 6.8822C63.0375 7.03323 62.613 7.10671 62.0619 7.10671C61.7435 7.10671 61.4129 7.07405 61.0781 7.00874C60.7434 6.94343 60.421 6.84546 60.1189 6.71892C59.9883 6.65769 59.923 6.55564 59.923 6.40869C59.923 6.33114 59.9556 6.26174 60.025 6.19643C60.0944 6.13112 60.172 6.09847 60.2577 6.09847C60.274 6.09847 60.3067 6.10663 60.3475 6.12296C60.3924 6.13929 60.4699 6.17194 60.5802 6.21276C60.7434 6.27399 60.9598 6.33114 61.2292 6.38012C61.4945 6.43319 61.7721 6.45768 62.0578 6.45768C62.5232 6.45768 62.8783 6.37604 63.1273 6.21684C63.3722 6.05765 63.4947 5.85763 63.4947 5.6168C63.4947 5.39229 63.4089 5.20044 63.2375 5.04124C63.0661 4.88205 62.7762 4.78408 62.3721 4.75142L61.8537 4.69836C61.3435 4.64529 60.9557 4.55141 60.6904 4.40854C60.421 4.26567 60.2414 4.09831 60.1475 3.91054C60.0536 3.72277 60.0046 3.53092 60.0046 3.33907C60.0046 3.12273 60.0617 2.91047 60.1801 2.69821C60.2985 2.48595 60.4985 2.30634 60.7883 2.15939C61.0781 2.01244 61.4782 1.93896 61.9843 1.93896C62.2782 1.93896 62.5517 1.95937 62.8048 1.99611C63.0579 2.03285 63.2865 2.08591 63.4824 2.14306C63.5518 2.15123 63.609 2.18796 63.6498 2.25327C63.6947 2.31859 63.7151 2.3839 63.7151 2.45329C63.7151 2.54717 63.6824 2.62473 63.6171 2.68596C63.5518 2.74719 63.4783 2.77576 63.3926 2.77576C63.3395 2.77576 63.2497 2.75944 63.1191 2.7227L63.1232 2.72678Z" fill="#0E1A24"/>
<path d="M68.4828 7.04923C67.6868 7.04923 67.1235 6.88187 66.7888 6.55124C66.4541 6.2206 66.2826 5.77158 66.2826 5.21236V2.62441H65.4662C65.3805 2.62441 65.303 2.59175 65.2417 2.52644C65.1805 2.46113 65.1438 2.38765 65.1438 2.30193C65.1438 2.20805 65.1764 2.13049 65.2417 2.06926C65.307 2.00803 65.3805 1.97946 65.4662 1.97946H66.2826V0.669153C66.2826 0.575269 66.3153 0.497712 66.3806 0.436482C66.4459 0.375253 66.5194 0.34668 66.6051 0.34668C66.699 0.34668 66.7765 0.375253 66.8378 0.436482C66.899 0.497712 66.9276 0.575269 66.9276 0.669153V1.97538H68.6502C68.744 1.97538 68.8216 2.00395 68.8828 2.06518C68.9441 2.12641 68.9726 2.20396 68.9726 2.29785C68.9726 2.38357 68.9441 2.46113 68.8828 2.52236C68.8216 2.58767 68.744 2.62032 68.6502 2.62032H66.9276V5.20828C66.9276 6.00426 67.446 6.4002 68.4828 6.4002C68.5767 6.4002 68.6542 6.43286 68.7155 6.49817C68.7767 6.56348 68.8053 6.63696 68.8053 6.72676C68.8053 6.81656 68.7726 6.89004 68.7073 6.95127C68.642 7.01658 68.5685 7.04923 68.4787 7.04923H68.4828Z" fill="#0E1A24"/>
<path d="M71.0463 5.71893C71.2177 5.71893 71.3606 5.78424 71.4749 5.91894C71.5851 6.05365 71.6422 6.22101 71.6422 6.41694C71.6422 6.65777 71.5892 6.83738 71.479 6.94759C71.3728 7.0578 71.23 7.11495 71.0585 7.11495C70.9197 7.11495 70.785 7.0578 70.6585 6.94759C70.5279 6.83738 70.4626 6.65777 70.4626 6.41694C70.4626 6.20876 70.5156 6.0414 70.6177 5.91078C70.7197 5.78016 70.8626 5.71484 71.0463 5.71484V5.71893Z" fill="#0E1A24"/>
<path d="M77.21 7.04952C77.1243 7.04952 77.0467 7.01686 76.9855 6.95155C76.9243 6.88624 76.8875 6.81277 76.8875 6.72705C76.8875 6.65765 76.9161 6.58418 76.9773 6.50662L79.2673 4.3187C79.7 3.90642 80.0429 3.55946 80.296 3.28188C80.549 3.00431 80.7327 2.75531 80.847 2.52264C80.9572 2.29405 81.0144 2.05322 81.0144 1.80422C81.0144 1.50216 80.8878 1.23275 80.6388 1.00008C80.3898 0.767406 80.0306 0.649029 79.5653 0.649029C78.9448 0.649029 78.3489 0.820471 77.7774 1.16744C77.7529 1.1756 77.7243 1.18785 77.6998 1.20009C77.6753 1.21234 77.6427 1.2205 77.61 1.2205C77.5325 1.2205 77.459 1.19193 77.3896 1.13478C77.3202 1.07763 77.2876 1.00008 77.2876 0.893946C77.2876 0.771488 77.3406 0.681685 77.4427 0.620456C78.108 0.208179 78.8142 0 79.5653 0C80.047 0 80.447 0.0898028 80.7572 0.265326C81.0674 0.44085 81.296 0.665357 81.443 0.938847C81.5899 1.21234 81.6634 1.49807 81.6634 1.80014C81.6634 2.08587 81.6063 2.35936 81.496 2.62877C81.3858 2.89818 81.1858 3.20025 80.9082 3.53496C80.6266 3.86968 80.2306 4.28604 79.7122 4.77588L78.0182 6.39233H81.7736C81.8675 6.39233 81.9451 6.42498 82.0063 6.49029C82.0675 6.5556 82.0961 6.62908 82.0961 6.71888C82.0961 6.80868 82.0675 6.88216 82.0063 6.94339C81.9451 7.0087 81.8675 7.04135 81.7736 7.04135H77.2182L77.21 7.04952Z" fill="#0E1A24"/>
<path d="M86.476 0.0201952C86.9944 0.0201952 87.472 0.167145 87.9047 0.465127C88.3415 0.763109 88.6884 1.17539 88.9538 1.70604C89.215 2.23669 89.3497 2.85715 89.3497 3.56332C89.3497 4.22868 89.2354 4.83281 89.0068 5.37571C88.7782 5.91861 88.4517 6.35129 88.0231 6.66968C87.5945 6.98807 87.0802 7.14727 86.476 7.14727C85.925 7.14727 85.427 6.98807 84.9861 6.66968C84.5453 6.35129 84.1983 5.92269 83.9452 5.37979C83.6921 4.84097 83.5615 4.24093 83.5615 3.58782C83.5615 2.87347 83.6881 2.24486 83.9371 1.71012C84.1861 1.17539 84.533 0.759027 84.9739 0.461045C85.4147 0.163063 85.9127 0.0161133 86.476 0.0161133V0.0201952ZM86.476 0.669224C86.0189 0.669224 85.6188 0.795765 85.28 1.05293C84.9371 1.30601 84.6759 1.65297 84.4922 2.09382C84.3085 2.53467 84.2146 3.03267 84.2146 3.59598C84.2146 4.10622 84.3085 4.58381 84.5004 5.02466C84.6922 5.46959 84.9535 5.8288 85.2964 6.09821C85.6392 6.3717 86.0311 6.50641 86.4801 6.50641C86.974 6.50641 87.3822 6.36762 87.7088 6.09413C88.0353 5.81656 88.2843 5.45735 88.4517 5.01241C88.6191 4.56748 88.7048 4.08581 88.7048 3.56741C88.7048 3.01634 88.6068 2.52243 88.415 2.08566C88.219 1.64889 87.9537 1.30601 87.619 1.04885C87.2843 0.795765 86.9006 0.665143 86.4801 0.665143L86.476 0.669224Z" fill="#0E1A24"/>
<path d="M91.109 7.04952C91.0233 7.04952 90.9458 7.01686 90.8845 6.95155C90.8233 6.88624 90.7866 6.81277 90.7866 6.72705C90.7866 6.65765 90.8151 6.58418 90.8764 6.50662L93.1663 4.3187C93.599 3.90642 93.9419 3.55946 94.195 3.28188C94.4481 3.00431 94.6318 2.75531 94.746 2.52264C94.8563 2.29405 94.9134 2.05322 94.9134 1.80422C94.9134 1.50216 94.7869 1.23275 94.5379 1.00008C94.2889 0.767406 93.9297 0.649029 93.4643 0.649029C92.8439 0.649029 92.2479 0.820471 91.6764 1.16744C91.6519 1.1756 91.6234 1.18785 91.5989 1.20009C91.5744 1.21234 91.5417 1.2205 91.5091 1.2205C91.4315 1.2205 91.358 1.19193 91.2886 1.13478C91.2192 1.07763 91.1866 1.00008 91.1866 0.893946C91.1866 0.771488 91.2397 0.681685 91.3417 0.620456C92.0071 0.208179 92.7132 0 93.4643 0C93.946 0 94.346 0.0898028 94.6562 0.265326C94.9665 0.44085 95.1951 0.665357 95.342 0.938847C95.489 1.21234 95.5624 1.49807 95.5624 1.80014C95.5624 2.08587 95.5053 2.35936 95.3951 2.62877C95.2849 2.89818 95.0848 3.20025 94.8073 3.53496C94.5256 3.86968 94.1297 4.28604 93.6113 4.77588L91.9173 6.39233H95.6726C95.7665 6.39233 95.8441 6.42498 95.9053 6.49029C95.9665 6.5556 95.9951 6.62908 95.9951 6.71888C95.9951 6.80868 95.9665 6.88216 95.9053 6.94339C95.8441 7.0087 95.7665 7.04135 95.6726 7.04135H91.1172L91.109 7.04952Z" fill="#0E1A24"/>
<path d="M100.379 0.0201952C100.898 0.0201952 101.375 0.167145 101.808 0.465127C102.245 0.763109 102.592 1.17539 102.857 1.70604C103.118 2.23669 103.253 2.85715 103.253 3.56332C103.253 4.22868 103.139 4.83281 102.91 5.37571C102.681 5.91861 102.355 6.35129 101.926 6.66968C101.498 6.98807 100.983 7.14727 100.379 7.14727C99.8281 7.14727 99.3301 6.98807 98.8892 6.66968C98.4484 6.35129 98.1014 5.92269 97.8483 5.37979C97.5953 4.84097 97.4646 4.24093 97.4646 3.58782C97.4646 2.87347 97.5912 2.24486 97.8402 1.71012C98.0892 1.17539 98.4361 0.759027 98.877 0.461045C99.3178 0.163063 99.8158 0.0161133 100.379 0.0161133V0.0201952ZM100.379 0.669224C99.922 0.669224 99.5219 0.795765 99.1831 1.05293C98.8402 1.30601 98.579 1.65297 98.3953 2.09382C98.2116 2.53467 98.1177 3.03267 98.1177 3.59598C98.1177 4.10622 98.2116 4.58381 98.4035 5.02466C98.5953 5.46959 98.8566 5.8288 99.1995 6.09821C99.5423 6.3717 99.9342 6.50641 100.383 6.50641C100.877 6.50641 101.285 6.36762 101.612 6.09413C101.938 5.81656 102.187 5.45735 102.355 5.01241C102.522 4.56748 102.608 4.08581 102.608 3.56741C102.608 3.01634 102.51 2.52243 102.318 2.08566C102.122 1.64889 101.857 1.30601 101.522 1.04885C101.187 0.795765 100.804 0.665143 100.383 0.665143L100.379 0.669224Z" fill="#0E1A24"/>
<path d="M56.3717 164.021C56.3717 164.106 56.3431 164.18 56.2819 164.245C56.2206 164.31 56.1431 164.343 56.0492 164.343C55.9635 164.343 55.89 164.31 55.8247 164.245C55.7594 164.18 55.7267 164.106 55.7267 164.021V157.783C55.7267 157.69 55.7594 157.612 55.8247 157.551C55.89 157.49 55.9635 157.461 56.0492 157.461C56.1431 157.461 56.2206 157.49 56.2819 157.551C56.3431 157.612 56.3717 157.69 56.3717 157.783V164.021Z" fill="#0E1A24"/>
<path d="M61.1843 164.343C61.0986 164.343 61.0251 164.311 60.9598 164.245C60.8945 164.18 60.8618 164.107 60.8618 164.021V158.102H58.4575C58.3718 158.102 58.2984 158.069 58.233 158.004C58.1677 157.939 58.1351 157.865 58.1351 157.78C58.1351 157.686 58.1677 157.608 58.233 157.547C58.2984 157.486 58.3718 157.457 58.4575 157.457H63.9641C64.058 157.457 64.1355 157.486 64.1968 157.547C64.258 157.608 64.2866 157.686 64.2866 157.78C64.2866 157.865 64.258 157.939 64.1968 158.004C64.1355 158.069 64.058 158.102 63.9641 158.102H61.5068V164.021C61.5068 164.107 61.4782 164.18 61.417 164.245C61.3557 164.311 61.2782 164.343 61.1843 164.343Z" fill="#0E1A24"/>
<path d="M70.5728 164.343C70.4258 164.343 70.3278 164.274 70.2789 164.139C70.1931 163.907 70.0911 163.65 69.9686 163.368C69.8503 163.086 69.7196 162.788 69.5809 162.482H65.952C65.8336 162.792 65.7193 163.086 65.6091 163.364C65.503 163.641 65.405 163.899 65.3193 164.131C65.2948 164.201 65.2499 164.254 65.1887 164.29C65.1274 164.327 65.0662 164.348 64.9968 164.348C64.9193 164.348 64.8499 164.315 64.7846 164.25C64.7193 164.184 64.6866 164.107 64.6866 164.013C64.6866 163.988 64.6948 163.952 64.707 163.903C64.7193 163.854 64.756 163.76 64.8172 163.613C64.9642 163.225 65.1356 162.784 65.3397 162.286C65.5397 161.788 65.7561 161.27 65.9887 160.731C66.2214 160.192 66.4582 159.645 66.6949 159.098C66.9358 158.551 67.1684 158.029 67.3888 157.543C67.4501 157.412 67.5521 157.351 67.6991 157.351H67.7521C67.9073 157.351 68.0093 157.412 68.0624 157.531C68.295 158.029 68.54 158.563 68.8012 159.139C69.0624 159.715 69.3196 160.282 69.5686 160.845C69.8176 161.409 70.0462 161.931 70.2503 162.413C70.4544 162.898 70.6217 163.298 70.7524 163.617C70.8218 163.772 70.8626 163.874 70.8748 163.927C70.8871 163.98 70.8952 164.013 70.8952 164.029C70.8952 164.115 70.8626 164.188 70.7973 164.254C70.732 164.319 70.6585 164.352 70.5728 164.352V164.343ZM69.3114 161.833C69.0624 161.257 68.8012 160.67 68.5277 160.07C68.2542 159.47 67.9889 158.898 67.7317 158.359C67.4909 158.906 67.2419 159.482 66.9807 160.078C66.7194 160.674 66.4663 161.257 66.2296 161.833H69.3155H69.3114Z" fill="#0E1A24"/>
<path d="M79.2428 161.188C79.3367 161.188 79.4142 161.217 79.4755 161.278C79.5367 161.339 79.5653 161.417 79.5653 161.51C79.5653 161.596 79.5367 161.67 79.4755 161.735C79.4142 161.8 79.3367 161.833 79.2428 161.833H76.6426C76.5569 161.833 76.4834 161.8 76.4181 161.735C76.3528 161.67 76.3201 161.596 76.3201 161.51C76.3201 161.417 76.3528 161.339 76.4181 161.278C76.4834 161.217 76.5569 161.188 76.6426 161.188H79.2428Z" fill="#0E1A24"/>
<path d="M93.5337 164.368C93.4561 164.368 93.3867 164.343 93.3296 164.29C93.2684 164.237 93.2316 164.172 93.2153 164.086C93.1541 163.596 93.0765 163.045 92.9826 162.429C92.8887 161.813 92.7867 161.172 92.6724 160.51C92.5622 159.849 92.4438 159.212 92.3254 158.592C92.0438 159.167 91.754 159.763 91.456 160.388C91.1621 161.008 90.8804 161.621 90.6151 162.221C90.3498 162.821 90.1089 163.384 89.8967 163.907C89.8355 164.054 89.7416 164.127 89.615 164.127C89.4599 164.127 89.3579 164.066 89.3048 163.947C89.0558 163.417 88.7823 162.837 88.4802 162.217C88.1782 161.596 87.8802 160.972 87.5863 160.343C87.2924 159.719 87.0148 159.139 86.7577 158.608C86.6883 159.061 86.6189 159.543 86.5454 160.049C86.4719 160.555 86.4025 161.057 86.3413 161.555C86.276 162.053 86.2188 162.519 86.1617 162.955C86.1046 163.392 86.0597 163.772 86.027 164.086C86.0188 164.164 85.9821 164.229 85.9168 164.286C85.8515 164.343 85.778 164.368 85.6923 164.368C85.6066 164.368 85.5331 164.335 85.4719 164.27C85.4106 164.205 85.382 164.127 85.382 164.033C85.382 164.017 85.3943 163.89 85.4188 163.662C85.4514 163.38 85.5004 162.992 85.5617 162.502C85.6229 162.013 85.6882 161.478 85.7658 160.902C85.8433 160.323 85.925 159.747 86.0107 159.172C86.0964 158.596 86.178 158.078 86.2556 157.616C86.2719 157.539 86.3127 157.473 86.378 157.424C86.4434 157.371 86.5128 157.347 86.5903 157.347C86.6924 157.347 86.7699 157.38 86.823 157.449C86.9087 157.535 86.9781 157.637 87.0271 157.759C87.2679 158.241 87.5292 158.776 87.819 159.372C88.1047 159.968 88.4027 160.58 88.7129 161.204C89.0231 161.829 89.313 162.429 89.5865 163.004C89.8355 162.437 90.1049 161.837 90.3906 161.196C90.6763 160.555 90.9743 159.919 91.2764 159.278C91.5825 158.641 91.8805 158.045 92.1703 157.498C92.2397 157.388 92.3377 157.331 92.4642 157.331C92.5418 157.331 92.6153 157.355 92.6846 157.4C92.754 157.449 92.7908 157.51 92.7989 157.588C92.901 158.094 93.003 158.633 93.101 159.2C93.199 159.772 93.2929 160.319 93.3786 160.841C93.4643 161.364 93.5337 161.821 93.5908 162.213C93.648 162.604 93.6888 162.87 93.7133 163.017C93.7827 163.437 93.8235 163.707 93.8358 163.829C93.848 163.947 93.8562 164.021 93.8562 164.049C93.8562 164.135 93.8276 164.209 93.7664 164.274C93.7051 164.339 93.6276 164.372 93.5337 164.372V164.368Z" fill="#0E1A24"/>
<path d="M101.061 164.343C100.959 164.343 100.873 164.294 100.804 164.201C100.616 163.927 100.31 163.531 99.8893 163.017C99.4688 162.502 99.0157 161.943 98.5259 161.343C98.0728 161.911 97.6401 162.449 97.2319 162.956C96.8237 163.466 96.4972 163.882 96.2482 164.209C96.187 164.294 96.1012 164.339 95.991 164.339C95.9053 164.339 95.8318 164.307 95.7665 164.241C95.7012 164.176 95.6685 164.103 95.6685 164.017C95.6685 163.948 95.689 163.882 95.7339 163.825C95.991 163.474 96.3339 163.033 96.7584 162.498C97.1829 161.968 97.632 161.409 98.1014 160.825C97.681 160.302 97.2728 159.788 96.8809 159.286C96.4849 158.784 96.1543 158.339 95.889 157.955C95.8563 157.914 95.8359 157.857 95.8359 157.788C95.8359 157.694 95.8686 157.612 95.9339 157.551C95.9992 157.486 96.0686 157.453 96.1461 157.453C96.2645 157.453 96.3625 157.502 96.4278 157.596C96.6768 157.963 96.987 158.384 97.3585 158.857C97.7299 159.331 98.1136 159.817 98.5096 160.323C98.9055 159.817 99.2811 159.327 99.6362 158.857C99.9913 158.384 100.289 157.967 100.53 157.596C100.583 157.502 100.673 157.453 100.8 157.453C100.885 157.453 100.959 157.486 101.024 157.551C101.089 157.616 101.122 157.69 101.122 157.776C101.122 157.853 101.106 157.914 101.069 157.955C100.828 158.331 100.518 158.776 100.13 159.282C99.7423 159.788 99.3423 160.306 98.9219 160.837C99.2647 161.249 99.5913 161.649 99.9056 162.041C100.22 162.433 100.497 162.78 100.746 163.09C100.995 163.401 101.183 163.65 101.314 163.837C101.355 163.899 101.379 163.956 101.379 164.017C101.379 164.103 101.347 164.176 101.281 164.241C101.216 164.307 101.142 164.339 101.057 164.339L101.061 164.343Z" fill="#0E1A24"/>
<path d="M60.8251 31.7048C63.1599 30.3006 65.8091 29.5904 68.7114 29.5904H68.9114V28.5658H68.7114C65.2866 28.5658 62.1231 29.321 59.0453 30.8762C55.1838 29.2312 50.3916 28.3984 44.7912 28.3984C37.011 28.3984 29.7288 30.6517 24.2835 34.7459C18.5851 39.0278 15.4461 45.016 15.4461 51.6084C15.4461 54.9597 16.4788 57.7803 18.4381 59.7682C20.2383 61.5969 22.7405 62.6051 25.4754 62.6051C31.4146 62.6051 35.6272 56.9353 36.1293 51.6859L36.1456 51.5267L35.2354 51.2247L35.219 51.4818C34.7904 58.017 29.3533 61.6336 25.7612 61.6336C19.3566 61.6336 18.8586 54.0045 18.8586 51.6655C18.8586 40.6973 27.8429 29.5944 45.0198 29.5944C49.8936 29.5944 54.049 30.3374 57.3758 31.8069C53.4367 34.2642 49.8814 38.0604 46.2158 43.7139L37.5253 57.0659C29.2512 69.7771 23.2712 78.9615 16.389 78.9615C13.0051 78.9615 10.6335 77.3165 9.66197 74.3081C9.9722 74.4305 10.3681 74.5326 10.8212 74.5326C12.5397 74.5326 13.6908 73.357 13.6908 71.6058C13.6908 69.9486 12.5112 68.7934 10.8212 68.7934C9.13131 68.7934 7.95163 69.9404 7.95571 71.7609L8.00878 72.0059C8.00878 77.0389 11.1437 80.0473 16.389 80.0473C25.0836 80.0473 31.6106 74.6632 40.4766 60.1805L50.759 43.3628C53 39.6605 55.69 35.4929 59.2943 32.762C64.7356 36.0031 66.7316 41.5423 64.7723 47.9754C62.3925 55.9271 54.1307 63.0011 49.2854 63.0011C47.8853 63.0011 46.6689 62.4133 45.9464 61.3887C45.0728 60.1519 44.9749 58.3967 45.6688 56.4496C46.1668 55.0454 49.0405 48.0816 56.5921 49.0245L56.7554 49.0449L57.0493 48.1591L56.8207 48.1183C56.188 48.004 55.543 47.9469 54.9103 47.9469C51.11 47.9469 46.1464 50.8818 44.4361 56.323C43.636 58.7926 43.8156 61.0785 44.9218 62.6051C45.8688 63.9073 47.4567 64.5971 49.514 64.5971C56.4329 64.5971 65.0417 60.7846 68.4542 50.0817C70.883 42.3628 68.0338 35.5214 60.8291 31.713L60.8251 31.7048Z" fill="#0E1A24"/>
<path d="M140.57 62.8824C138.398 67.6746 134.125 74.8099 131.263 74.8099C130.667 74.8099 130.128 74.4792 129.785 73.9037C129.149 72.8342 129.32 71.181 130.247 69.4789L149.154 34.1333H147.399C145.795 34.1333 144.256 35.0681 143.472 36.509L129.667 62.7641H129.659L129.606 62.8824C129.606 62.8824 129.606 62.8865 129.606 62.8906L127.855 66.2256C127.471 66.9603 127.144 67.6787 126.875 68.3727C124.512 72.6056 122.467 74.8099 120.875 74.8099C120.23 74.8099 119.674 74.5037 119.356 73.969C118.83 73.0914 118.993 71.7239 119.801 70.2177L128.994 53.1633H127.238C126.075 53.1633 124.859 53.6858 124.001 54.543C123.324 53.245 121.826 52.5388 119.74 52.5388C115.793 52.5388 110.437 57.1065 107.335 62.7641H107.282L107.229 62.8824C107.118 63.1233 107.004 63.3682 106.89 63.6172C106.763 63.8662 106.645 64.1193 106.531 64.3723C104.053 69.4789 100.62 74.8099 98.1504 74.8099C97.5054 74.8099 96.9503 74.5037 96.6319 73.969C96.1053 73.0914 96.2686 71.7239 97.0768 70.2177L116.38 34.1333H114.625C113.021 34.1333 111.482 35.0681 110.698 36.509L100.738 55.3757C100.428 54.0246 99.6158 52.5388 97.0115 52.5388C93.1745 52.5388 87.3985 56.9555 84.2799 62.7641H84.2677L84.2146 62.8824C84.2146 62.8824 84.2064 62.9029 84.2024 62.911C84.0024 63.2906 83.8105 63.6703 83.6391 64.058C82.8063 65.6663 81.2593 68.34 79.104 70.7524C76.365 73.818 73.6342 75.3732 70.9932 75.3732C69.2216 75.3732 68.4665 74.3119 68.4665 71.8219C68.4665 69.9034 68.989 67.7685 70.0584 65.2867C79.3571 62.8335 83.6921 57.7065 83.6921 55.0043C83.6921 53.4899 82.492 52.5878 80.4796 52.5878C73.7975 52.5878 64.9397 62.6457 64.9397 70.2299C64.9397 74.5078 66.7929 76.9651 70.0258 76.9651C70.0503 76.9651 70.0707 76.9651 70.0952 76.9651C75.418 76.9651 79.6918 72.1811 82.3328 68.193C82.1818 69.038 82.1002 69.8871 82.1002 70.7402C82.1002 74.9119 83.684 77.304 86.4474 77.304C88.6925 77.304 90.7865 75.8018 92.9949 72.5852C92.9337 74.0506 93.2806 75.2548 94.0154 76.0916C94.6766 76.8468 95.5951 77.2468 96.6727 77.2468C99.7342 77.2468 102.755 73.3526 104.963 69.585C104.877 70.2218 104.824 70.8545 104.824 71.479C104.824 76.7366 107.865 77.304 109.172 77.304C112.041 77.304 114.111 74.7936 115.756 72.1403C115.752 73.8261 116.213 75.2793 117.058 76.2018C117.687 76.8876 118.499 77.2509 119.397 77.2509C121.711 77.2509 123.969 75.063 125.981 72.0423C125.879 73.4016 126.099 74.5813 126.655 75.4956C127.328 76.61 128.471 77.2468 129.794 77.2468C134.402 77.2468 139.362 68.3114 141.57 63.0335L141.684 62.7559H140.631L140.578 62.8743L140.57 62.8824ZM122.026 57.8127L117.45 66.2337L116.94 67.3073C113.47 74.2507 111.809 75.2058 110.527 75.2058C109.114 75.2058 108.396 73.8221 108.396 71.0872C108.396 63.2049 116.074 53.9593 120.013 53.9593C121.381 53.9593 121.858 56.3432 122.022 57.8086L122.026 57.8127ZM99.4688 57.8698L95.0726 66.2133C94.9011 66.499 94.7256 66.797 94.6113 67.0746C92.5908 70.9239 89.7334 74.8058 87.9129 74.8058C86.8311 74.8058 85.6719 73.4098 85.6719 70.3483C85.6719 62.6416 93.248 53.9593 97.2891 53.9593C98.3871 53.9593 99.1994 55.4166 99.4688 57.8657V57.8698ZM70.5932 64.0907C73.5077 58.4331 78.704 53.5634 80.4184 53.5634C80.5898 53.5634 80.7245 53.7715 80.7817 54.1144C81.096 56.0248 78.9407 61.1231 70.5932 64.0907Z" fill="#0E1A24"/>
<path d="M10.7518 110.282V117.866C10.7518 120.703 10.8172 122.565 10.9519 123.442C11.0866 124.32 11.4458 124.973 12.0295 125.397C12.6173 125.822 13.7153 126.034 15.3277 126.034H16.5237V127.259H0V126.034H0.959257C2.50223 126.034 3.5717 125.838 4.16767 125.451C4.76363 125.059 5.13917 124.455 5.29836 123.626C5.45756 122.801 5.5392 120.883 5.5392 117.866V100.171C5.5392 97.2973 5.45756 95.4441 5.29836 94.6114C5.13917 93.7787 4.78404 93.1991 4.23298 92.8807C3.68191 92.5623 2.49407 92.4031 0.669439 92.4031H0V91.1785L4.52279 91.0193C8.14348 90.8969 10.9641 90.8315 12.9847 90.8315C16.7115 90.8315 19.5811 91.1254 21.5935 91.7092C23.6059 92.2929 25.255 93.3338 26.5408 94.8237C27.8266 96.3136 28.4716 98.1954 28.4716 100.465C28.4716 102.432 28.0307 104.171 27.1531 105.682C26.2755 107.188 25.0142 108.335 23.3732 109.115C21.7323 109.894 18.8463 110.286 14.7113 110.286H10.7478L10.7518 110.282ZM10.7518 108.951H13.3316C15.4053 108.951 17.0829 108.743 18.3606 108.327C19.6382 107.91 20.7036 107.037 21.5527 105.706C22.4058 104.375 22.8303 102.734 22.8303 100.783C22.8303 97.8035 22.0996 95.6156 20.6342 94.2236C19.1688 92.8317 16.7972 92.1337 13.5153 92.1337C12.3071 92.1337 11.3845 92.1704 10.7478 92.2398V108.951H10.7518Z" fill="#0E1A24"/>
<path d="M36.1742 110.147C36.7783 108.568 37.758 107.245 39.1132 106.184C40.4725 105.119 41.795 104.588 43.0931 104.588C44.2646 104.588 45.1871 104.951 45.8606 105.678C46.5342 106.404 46.873 107.151 46.873 107.915C46.873 108.429 46.7015 108.874 46.3546 109.245C46.0076 109.617 45.5872 109.805 45.0892 109.805C44.2034 109.805 43.5299 109.147 43.0686 107.837C42.7502 106.951 42.2685 106.506 41.6318 106.506C40.8684 106.506 39.9541 107.025 38.8928 108.062C37.8274 109.098 37.1457 110.176 36.8436 111.295C36.5416 112.413 36.3905 113.948 36.3905 115.899V119.785C36.3905 122.108 36.4232 123.573 36.4844 124.177C36.5457 124.781 36.7987 125.243 37.2437 125.561C37.6886 125.879 38.4764 126.039 39.6112 126.039H40.3541V127.263H28.7777V126.039H29.3369C30.4023 126.039 31.1616 125.892 31.6106 125.598C32.0637 125.304 32.3331 124.891 32.4229 124.361C32.5127 123.83 32.5576 122.304 32.5576 119.785V113.638C32.5576 111.295 32.5249 109.829 32.4637 109.233C32.4025 108.637 32.1494 108.18 31.7045 107.849C31.2595 107.523 30.4717 107.355 29.3369 107.355H28.7777V106.159C30.4431 105.963 32.627 105.441 35.3252 104.588C35.8395 105.988 36.1252 107.841 36.1783 110.147H36.1742Z" fill="#0E1A24"/>
<path d="M66.4418 112.837H51.2488C51.1794 113.882 51.1427 114.666 51.1427 115.181C51.1427 119.013 51.7427 121.891 52.9387 123.814C54.1348 125.736 55.9226 126.7 58.2983 126.7C61.5272 126.7 63.8171 125.255 65.1642 122.361H66.4418C65.8744 124.169 64.7478 125.585 63.062 126.606C61.3761 127.626 59.5392 128.137 57.5554 128.137C55.7104 128.137 53.9674 127.671 52.3265 126.741C50.6855 125.81 49.3425 124.491 48.2935 122.789C47.2444 121.087 46.7219 119.022 46.7219 116.589C46.7219 113.148 47.7343 110.286 49.7548 108.009C51.7795 105.731 54.3062 104.588 57.3391 104.588C60.1964 104.588 62.4048 105.457 63.9641 107.196C65.5234 108.935 66.352 110.817 66.4377 112.837H66.4418ZM61.7843 111.772C61.8374 111.364 61.866 111.001 61.866 110.682C61.866 109.123 61.4088 107.911 60.4944 107.049C59.5801 106.188 58.4575 105.759 57.1268 105.759C53.898 105.759 51.9754 107.764 51.3549 111.772H61.7843Z" fill="#0E1A24"/>
<path d="M68.9563 127.953V120.793H69.9931C71.2014 124.928 73.3526 126.994 76.4589 126.994C77.806 126.994 78.8142 126.586 79.4796 125.769C80.1449 124.953 80.4796 124.059 80.4796 123.083C80.4796 121.949 80.1245 121.018 79.4142 120.291C78.6877 119.565 77.2753 118.687 75.1813 117.658C72.9811 116.577 71.4014 115.511 70.4462 114.466C69.487 113.438 69.0094 112.168 69.0094 110.662C69.0094 109.156 69.5237 107.854 70.5523 106.551C71.581 105.249 73.026 104.596 74.8874 104.596C76.7487 104.596 78.357 105.368 79.5979 106.911C79.8633 106.645 80.2102 105.996 80.6347 104.968H81.6185V111.699H80.6347C80.2796 110.086 79.5939 108.694 78.5734 107.535C77.5529 106.372 76.3528 105.792 74.969 105.792C73.9036 105.792 73.0423 106.119 72.3892 106.776C71.732 107.433 71.4055 108.196 71.4055 109.066C71.4055 110.025 71.7688 110.85 72.4954 111.54C73.2056 112.25 74.5608 113.058 76.5651 113.96C79.5816 115.328 81.4266 116.658 82.1002 117.952C82.7737 119.267 83.1125 120.524 83.1125 121.732C83.1125 123.63 82.4879 125.173 81.2348 126.361C79.9857 127.549 78.4101 128.145 76.512 128.145C74.5077 128.145 72.7239 127.32 71.1646 125.671C70.687 126.202 70.2952 126.965 69.9931 127.961H68.9563V127.953Z" fill="#0E1A24"/>
<path d="M98.1055 106.69H91.5335V119.862C91.5335 121.883 91.6233 123.246 91.7989 123.948C91.9744 124.651 92.354 125.214 92.9296 125.638C93.5051 126.063 94.1215 126.275 94.7787 126.275C96.0563 126.275 97.1625 125.549 98.1055 124.091L98.9586 124.597C98.4075 125.769 97.5952 126.651 96.5258 127.247C95.4522 127.843 94.3664 128.136 93.2643 128.136C91.9866 128.136 90.8641 127.761 89.8967 127.006C88.9293 126.251 88.3251 125.369 88.0884 124.357C87.8476 123.344 87.7292 121.573 87.7292 119.034V106.686H84.5616V105.461C86.0148 105.425 87.321 104.812 88.4721 103.624C89.6232 102.437 90.362 100.767 90.6804 98.624H91.5335V105.461H98.1055V106.686V106.69Z" fill="#0E1A24"/>
<path d="M130.655 107.384C132.161 105.682 133.688 104.829 135.231 104.829C136.084 104.829 136.741 105.062 137.215 105.523C137.684 105.984 137.921 106.49 137.921 107.041C137.921 108.213 137.39 108.797 136.325 108.797C135.741 108.797 135.235 108.433 134.81 107.707C134.418 107.033 134.01 106.694 133.586 106.694C132.912 106.694 132.165 107.156 131.353 108.078C132.275 109.531 132.737 111.074 132.737 112.707C132.737 114.834 131.973 116.716 130.447 118.348C128.92 119.998 126.348 120.883 122.732 121.01C118.972 121.132 117.091 121.896 117.091 123.3C117.091 123.957 117.515 124.418 118.368 124.684C119.201 124.969 120.96 125.182 123.638 125.32C126.565 125.463 128.818 125.733 130.398 126.133C131.977 126.533 133.235 127.333 134.178 128.541C135.116 129.749 135.59 131.186 135.59 132.852C135.59 135.195 134.631 137.085 132.716 138.517C130.802 139.954 128.042 140.673 124.442 140.673C121.144 140.673 118.499 140.036 116.511 138.758C114.523 137.481 113.531 135.868 113.531 133.917C113.531 132.835 113.813 131.949 114.384 131.256C114.952 130.562 115.76 130.219 116.805 130.219C117.091 130.219 117.344 130.264 117.576 130.353C116.474 131.562 115.927 132.835 115.927 134.186C115.927 135.746 116.658 137.04 118.123 138.056C119.589 139.072 121.773 139.587 124.683 139.587C127.275 139.587 129.292 139.068 130.737 138.032C132.182 136.995 132.904 135.668 132.904 134.052C132.904 132.276 132.255 131.027 130.961 130.3C129.667 129.59 127.361 129.166 124.042 129.023C120.23 128.864 117.752 128.394 116.617 127.61C115.482 126.847 114.915 125.863 114.915 124.655C114.915 122.332 116.54 120.867 119.785 120.263C118.099 119.271 116.829 118.136 115.98 116.859C115.131 115.581 114.703 114.152 114.703 112.572C114.703 110.356 115.576 108.47 117.323 106.919C119.07 105.368 121.14 104.592 123.536 104.592C126.499 104.592 128.875 105.523 130.667 107.384H130.655ZM118.683 113.185C118.683 115.475 119.152 117.148 120.095 118.214C121.034 119.279 122.234 119.81 123.687 119.81C125.034 119.81 126.193 119.283 127.161 118.226C128.128 117.173 128.61 115.34 128.61 112.732C128.61 110.123 128.096 108.299 127.067 107.303C126.038 106.311 124.875 105.813 123.581 105.813C121.948 105.813 120.724 106.425 119.907 107.65C119.091 108.874 118.683 110.719 118.683 113.185Z" fill="#0E1A24"/>
<path d="M157.11 112.837H141.917C141.848 113.882 141.811 114.666 141.811 115.181C141.811 119.013 142.411 121.891 143.607 123.814C144.803 125.736 146.591 126.7 148.966 126.7C152.195 126.7 154.485 125.255 155.832 122.361H157.11C156.543 124.169 155.416 125.585 153.73 126.606C152.044 127.626 150.207 128.137 148.224 128.137C146.379 128.137 144.636 127.671 142.995 126.741C141.354 125.81 140.011 124.491 138.962 122.789C137.917 121.087 137.39 119.022 137.39 116.589C137.39 113.148 138.402 110.286 140.423 108.009C142.448 105.731 144.974 104.588 148.007 104.588C150.865 104.588 153.073 105.457 154.632 107.196C156.192 108.935 157.02 110.817 157.106 112.837H157.11ZM152.452 111.772C152.506 111.364 152.534 111.001 152.534 110.682C152.534 109.123 152.077 107.911 151.163 107.049C150.248 106.188 149.126 105.759 147.795 105.759C144.566 105.759 142.644 107.764 142.023 111.772H152.452Z" fill="#0E1A24"/>
<path d="M109.784 125.557C109.339 125.238 109.082 124.777 109.012 124.173C108.943 123.569 108.906 122.108 108.906 119.781V104.588H108.323C106.584 105.208 104.135 105.678 100.979 105.996V107.221H101.698C102.689 107.221 103.387 107.29 103.788 107.433C104.188 107.576 104.506 107.931 104.747 108.498C104.988 109.066 105.106 110.625 105.106 113.18V119.781C105.106 122.214 105.073 123.679 105.012 124.185C104.951 124.691 104.726 125.124 104.347 125.487C103.963 125.851 103.143 126.034 101.885 126.034H100.979V127.259H112.715V126.034H112.156C111.021 126.034 110.229 125.875 109.788 125.557H109.784Z" fill="#0E1A24"/>
<path d="M106.857 101.029C107.62 101.029 108.27 100.755 108.8 100.204C109.331 99.6531 109.6 98.9877 109.6 98.2081C109.6 97.4284 109.335 96.7876 108.8 96.2406C108.27 95.6895 107.62 95.416 106.857 95.416C106.094 95.416 105.445 95.6895 104.902 96.2406C104.359 96.7916 104.09 97.4488 104.09 98.2081C104.09 98.9673 104.359 99.6531 104.902 100.204C105.445 100.755 106.094 101.029 106.857 101.029Z" fill="#0E1A24"/>
</svg>
